<svg xmlns="http://www.w3.org/2000/svg" viewBox="0 0 750 500"><g id="freepik--background-simple--inject-2"><path d="M669.83,97.57,669,95.08c-7-21-24.75-36.76-46.42-40.26a58.16,58.16,0,0,0-8.44-.74c-20.37-.25-40.61,10.6-51.89,27.82-6.64,10.13-10.68,22.61-20.5,29.61-12.77,9.12-30.13,5.56-45.21,1.63s-32.47-7.45-45.2,1.73c-8,5.74-12.32,15.51-14,25.25-4.44,25.79,8.14,52.61,28.15,69.06s46.37,23.51,72.21,24.15c36.21.88,73.49-10.8,100-35.91S678.41,133.12,669.83,97.57Z" style="fill:#f5f5f5"></path><circle cx="254.41" cy="132.66" r="56.23" style="fill:#f5f5f5"></circle></g><g id="freepik--Floor--inject-2"><path d="M703,291.2c0,.14-146.87.26-328,.26s-328-.12-328-.26,146.84-.26,328-.26S703,291.05,703,291.2Z" style="fill:#263238"></path><rect x="488.12" y="392" width="193.19" height="6" style="fill:#e0e0e0"></rect><rect x="174.9" y="393.95" width="159.02" height="6" transform="translate(-169.89 602.54) rotate(-83.2)" style="fill:#e0e0e0"></rect><rect x="366.14" y="316.35" width="6" height="161.2" transform="translate(-72.35 82.43) rotate(-11.61)" style="fill:#e0e0e0"></rect><rect x="485.53" y="305.05" width="6" height="181.44" transform="translate(-128.51 275.12) rotate(-27.95)" style="fill:#e0e0e0"></rect><path d="M729.18,478.9H42.55l48-166.27H641l.85,1.59Zm-678.65-6H719.21L637.43,318.63H95.06Z" style="fill:#e0e0e0"></path><path d="M254.88,398c-29.4,0-61.38-.39-92.31-.76s-62.87-.76-92.24-.76v-6c29.4,0,61.38.39,92.31.76s62.87.76,92.24.76Z" style="fill:#e0e0e0"></path></g><g id="freepik--Net--inject-2"><path d="M391,167.1c-.13.05-9.67-22.73-21.31-50.87s-21-51-20.83-51.08,9.67,22.72,21.31,50.88S391.09,167,391,167.1Z" style="fill:#e0e0e0"></path><path d="M391,186.72c-.13.05-9.67-22.73-21.31-50.87s-21-51-20.83-51.08,9.67,22.72,21.31,50.88S391.09,186.66,391,186.72Z" style="fill:#e0e0e0"></path><path d="M391,206.34c-.13.06-9.67-22.72-21.31-50.87s-21-51-20.83-51.07,9.67,22.72,21.31,50.87S391.09,206.29,391,206.34Z" style="fill:#e0e0e0"></path><path d="M391,223.65c-.13,0-9.67-22.73-21.31-50.87s-21-51-20.83-51.08,9.67,22.72,21.31,50.88S391.09,223.59,391,223.65Z" style="fill:#e0e0e0"></path><path d="M360.89,152.43c-.14,0-.26-13-.26-29s.12-29,.26-29,.27,13,.27,29S361,152.43,360.89,152.43Z" style="fill:#e0e0e0"></path><path d="M368.07,168.64a3.74,3.74,0,0,1-.05-.57c0-.43,0-1,0-1.62,0-1.4,0-3.44,0-5.95,0-5,.14-12,.35-19.65s.37-14.54.5-19.63c0-2.46.1-4.48.13-6,0-.66,0-1.19.05-1.62a3.74,3.74,0,0,1,0-.57,2.18,2.18,0,0,1,.06.57c0,.43,0,1,0,1.62,0,1.4,0,3.44,0,6,0,5-.14,12-.35,19.65s-.37,14.54-.5,19.63c-.05,2.46-.1,4.47-.13,5.95,0,.66,0,1.19-.05,1.62A2.18,2.18,0,0,1,368.07,168.64Z" style="fill:#e0e0e0"></path><path d="M377.17,191.19c-.14,0-.26-12.78-.26-28.53s.12-28.54.26-28.54.26,12.77.26,28.54S377.32,191.19,377.17,191.19Z" style="fill:#e0e0e0"></path><path d="M385.56,209.42c-.14,0-.26-12.4-.26-27.69s.12-27.7.26-27.7.26,12.4.26,27.7S385.71,209.42,385.56,209.42Z" style="fill:#e0e0e0"></path><path d="M391,474.89h-2V168.11a2.05,2.05,0,0,1,2-2.05h0a2.05,2.05,0,0,1,2.05,2.05V472.84A2.05,2.05,0,0,1,391,474.89Z" style="fill:#263238"></path><path d="M350.87,319.64h0a2.05,2.05,0,0,1-2.05-2.05V64.64a2.05,2.05,0,0,1,2.05-2h0a2.05,2.05,0,0,1,2.05,2v253A2.05,2.05,0,0,1,350.87,319.64Z" style="fill:#263238"></path></g><g id="freepik--Line--inject-2"><path d="M321,67.29a1.73,1.73,0,0,1-.35-.08l-1-.28-3.78-1.14L313.15,65c-1-.28-2.1-.55-3.28-.87-2.36-.6-5-1.37-8-2l-4.69-1c-1.63-.35-3.35-.62-5.12-1-3.54-.7-7.35-1.17-11.36-1.73a211.22,211.22,0,0,0-52.54,0c-4,.56-7.83,1-11.36,1.74-1.77.33-3.49.6-5.12,1l-4.69,1c-3,.61-5.66,1.39-8,2-1.18.31-2.28.58-3.28.87l-2.72.83L189.17,67l-1,.29-.34.08a1.33,1.33,0,0,1,.32-.13l1-.34,3.75-1.23,2.71-.87c1-.3,2.1-.59,3.27-.92,2.36-.63,5-1.43,8-2.07l4.69-1.07c1.63-.37,3.35-.64,5.12-1,3.54-.73,7.37-1.22,11.38-1.8a207.17,207.17,0,0,1,52.66,0c4,.58,7.84,1.07,11.37,1.79,1.77.34,3.5.61,5.13,1l4.69,1.07c3,.63,5.66,1.44,8,2.06,1.17.33,2.27.61,3.27.91l2.72.88,3.75,1.23,1,.33A1.31,1.31,0,0,1,321,67.29Z" style="fill:#263238"></path></g><g id="freepik--Ball--inject-2"><path d="M395.44,93.56l-2.9,2.59a2.14,2.14,0,1,0,2.9-2.59Z" style="fill:#FF725E"></path><path d="M385.06,87.94c0-.09-.29-1.81-.29-1.81l1.86.23V84.63l1.75.31.2-1.4,1.38.32.19-1.21h0l1,.28,1.24.71,1.38,5.48-5.33,4.61L383,91.25l-.74-1.4,1.45,0-.7-2.13Z" style="fill:#FF725E"></path><polygon points="393.8 89.12 395.16 93.01 391.93 95.73 388.47 93.73 393.8 89.12" style="fill:#FF725E"></polygon><polygon points="391.89 95.77 392.61 96.46 395.81 93.78 395.19 92.95 391.89 95.77" style="fill:#263238"></polygon><path d="M389.16,93.13a14.51,14.51,0,0,1-3.33-2.07,5.11,5.11,0,0,0-1.25-.75,5.87,5.87,0,0,0-1.15-.29,5,5,0,0,1-1.13-.17c0-.07.43-.21,1.16-.2a4.18,4.18,0,0,1,2.66,1A15.06,15.06,0,0,1,389.16,93.13Z" style="fill:#263238"></path><path d="M389.84,92.55a18.82,18.82,0,0,1-3-3.26c-.37-.44-.74-1-1.13-1s-1-.18-1.35-.25a3.85,3.85,0,0,1-1.28-.28,3.15,3.15,0,0,1,1.31-.08,10.38,10.38,0,0,1,1.43.14,1.32,1.32,0,0,1,.47.18,2.52,2.52,0,0,1,.35.3,6.8,6.8,0,0,1,.61.7A19,19,0,0,1,389.84,92.55Z" style="fill:#263238"></path><path d="M390.66,91.77a18.68,18.68,0,0,1-1.9-2.87A14.2,14.2,0,0,0,387.37,87a3.65,3.65,0,0,0-.51-.46c-.14-.06-.23-.12-.23-.15s.1,0,.3,0a1.81,1.81,0,0,1,.69.37,7.85,7.85,0,0,1,1.58,1.92A8.6,8.6,0,0,1,390.66,91.77Z" style="fill:#263238"></path><path d="M391.88,90.78a18.29,18.29,0,0,1-2.05-3.86c-.13-.27-.24-.54-.38-.8a1.53,1.53,0,0,0-.43-.56,3.61,3.61,0,0,0-1.17-.54c-.75-.21-1.23-.31-1.22-.39a2.64,2.64,0,0,1,1.3,0,3.44,3.44,0,0,1,1.38.52,1.89,1.89,0,0,1,.6.71c.13.24.25.51.38.79A18.82,18.82,0,0,1,391.88,90.78Z" style="fill:#263238"></path><path d="M389.65,83.8c0-.08.51-.09,1,.42a9.08,9.08,0,0,1,1.2,2.28,10.36,10.36,0,0,1,1,3.43,14.71,14.71,0,0,1-1.48-3.24,19.68,19.68,0,0,0-1-2.23C390,84,389.64,83.86,389.65,83.8Z" style="fill:#263238"></path></g><g id="freepik--character-2--inject-2"><path d="M589.86,327.21s6.89,0,14.72-5.6,9.31-12.25,9.31-12.25S593.51,315.79,589.86,327.21Z" style="fill:#455a64"></path><path d="M538.92,326a4.38,4.38,0,0,0,1.56,3.95c2,1.9,18.56,3.79,23.09,2.42s6.24-3.22,6.24-3.22l-8.43-13.65-11.45-2.25-6.07,1.22Z" style="fill:#455a64"></path><path d="M589.61,322.81c-.19.58,21.7,22.48,21.7,22.48a32,32,0,0,0-6,8.68c-2.15,4.88-6.58,21.23-6.58,21.23l11.9,2s6-6.91,8.05-9.62c1.73-2.25,8.65-9.67,9.62-10.65s6.06-5.16,6.06-8.29c0-4.08-22.38-39.25-22.38-39.25l-16.52,1.91Z" style="fill:#ffbf9d"></path><path d="M623.44,354a8.59,8.59,0,0,1-2.18-.54,15,15,0,0,1-4.85-2.46,26.07,26.07,0,0,1-3.88-3.79,6.75,6.75,0,0,1-1.22-1.89,15.64,15.64,0,0,1,1.5,1.65,36.29,36.29,0,0,0,3.93,3.62,17.77,17.77,0,0,0,4.64,2.53A10.69,10.69,0,0,1,623.44,354Z" style="fill:#FF725E"></path><path d="M614.29,373.59l1,2s19.64,8.11,19.82,11.85L596,386.83l.22-3.89,3.25-10.17C605.2,375.55,607.54,376.18,614.29,373.59Z" style="fill:#455a64"></path><g style="opacity:0.6000000000000001"><path d="M600.58,378a1.6,1.6,0,0,0-1.13,1.81,1.53,1.53,0,0,0,1.78,1.14,1.69,1.69,0,0,0,1.19-1.92,1.6,1.6,0,0,0-2-1" style="fill:#fff"></path></g><g style="opacity:0.6000000000000001"><path d="M596,386.83l.18-3.13,37.45,1.7s1.73.78,1.52,2Z" style="fill:#fff"></path></g><path d="M615.42,375.67c0,.19-1,.26-1.92.86s-1.46,1.4-1.63,1.32.12-1.18,1.29-1.89S615.46,375.49,615.42,375.67Z" style="fill:#263238"></path><path d="M619.5,377.42c0,.19-.79.5-1.45,1.3s-.86,1.65-1,1.64-.3-1.09.54-2.07S619.5,377.24,619.5,377.42Z" style="fill:#263238"></path><path d="M621.76,382.37c-.17,0-.43-.92.08-2s1.41-1.44,1.49-1.28-.49.71-.89,1.57S622,382.36,621.76,382.37Z" style="fill:#263238"></path><path d="M549.93,313.29l-9.19,8.61-1,31.08s-8.8,10.95-10,17-4.69,36.95-4.69,36.95l12.59,3.27s10.69-27.43,12.82-32.4c2-4.73,5-12.84,5-12.84s6-10.82,7.17-15.9,2.74-31.87,2.74-31.87Z" style="fill:#ffbf9d"></path><path d="M547.46,356.22a17.44,17.44,0,0,1-.29-5.42,17.16,17.16,0,0,1,.91-5.36c.15,0-.23,2.42-.39,5.39S547.61,356.21,547.46,356.22Z" style="fill:#FF725E"></path><path d="M525.57,402.83s8.45,8.76,14.34,2.75l1.62,4.51,4,23.08a3,3,0,0,1-2.08,3.44,3,3,0,0,1-3.11-.89c-4.09-4.57-19-21.48-18.66-23.55l.59-5.51a6.7,6.7,0,0,1,3.26-3.83Z" style="fill:#455a64"></path><g style="opacity:0.6000000000000001"><path d="M542.94,436.72l-21-26.47-.11,1.21c-.24,1.29.29,1.87.85,2.76,1.65,2.67,6.35,8.72,17.65,21.5a3.05,3.05,0,0,0,2.65,1Z" style="fill:#fff"></path></g><g style="opacity:0.6000000000000001"><path d="M525.66,407a1.74,1.74,0,0,1,.29,2.35,1.78,1.78,0,0,1-2.39.29,1.69,1.69,0,1,1,2.23-2.52" style="fill:#fff"></path></g><path d="M537.39,423.66a9.06,9.06,0,0,1,2.77-2,9.22,9.22,0,0,1,3.42-.32c0-.07-.32-.32-1-.48a4.86,4.86,0,0,0-2.66.21,4.65,4.65,0,0,0-2.13,1.57C537.41,423.21,537.32,423.63,537.39,423.66Z" style="fill:#263238"></path><path d="M539.13,427.66c.12.14,1.15-.7,2.7-1a24,24,0,0,1,2.89-.1c.09-.14-1.26-.87-3-.52S539,427.57,539.13,427.66Z" style="fill:#263238"></path><path d="M534,418.42c.13.15,1.69-1.15,4.06-1.8s4.41-.4,4.43-.59-2.07-.74-4.61,0S533.83,418.32,534,418.42Z" style="fill:#263238"></path><path d="M534.1,411.52c.06.18,1.74-.33,3.84-.21s3.73.76,3.81.59-1.51-1.12-3.78-1.22S534,411.38,534.1,411.52Z" style="fill:#263238"></path><path d="M539.15,411.36a2.63,2.63,0,0,0-.07-1.08,7.56,7.56,0,0,0-1.14-2.75,3.47,3.47,0,0,0-1.61-1.46,1.24,1.24,0,0,0-1.34.38,1.86,1.86,0,0,0-.34,1.32,4.27,4.27,0,0,0,4.08,3.51,4.92,4.92,0,0,0,4.58-2.92,1.62,1.62,0,0,0,0-1.39,1.19,1.19,0,0,0-1.29-.5,4.17,4.17,0,0,0-1.84,1.14,8.38,8.38,0,0,0-1.78,2.38,2.61,2.61,0,0,0-.36,1,13.13,13.13,0,0,1,2.45-3.08,3.92,3.92,0,0,1,1.63-1,.63.63,0,0,1,.7.27,1.07,1.07,0,0,1,0,.91,4.38,4.38,0,0,1-4,2.49,3.69,3.69,0,0,1-3.51-2.93,1.39,1.39,0,0,1,.2-.93.67.67,0,0,1,.73-.22,3.07,3.07,0,0,1,1.39,1.21A11.23,11.23,0,0,1,539.15,411.36Z" style="fill:#263238"></path><path d="M482.44,316.39h0a1.58,1.58,0,0,1-1.37-1.76l1.58-12.86a1.58,1.58,0,0,1,1.76-1.37h0a1.57,1.57,0,0,1,1.36,1.75L484.19,315A1.57,1.57,0,0,1,482.44,316.39Z" style="fill:#263238"></path><path d="M495,292.16a19,19,0,0,1-.56,6.3c-.87,3.51-5,6.1-5.27,6.61s-1.44,4.41-2.45,4.28-1.88-.72-1.49-3.55a8.91,8.91,0,0,1,.61-2.35l-6.18,7.77a3.39,3.39,0,0,1-1.05-4.38c2.15-4.62,2.45-4.72,2.45-4.72s-4.2-.56-3.69-2.19l.11-.6a4,4,0,0,1,.21-2.9c.75-1.26,7.53-6,7.53-6Z" style="fill:#ffbf9d"></path><path d="M509.05,252.64s-9.28,9-12.54,16.56-11.84,21.6-11.84,21.6L495,292.16s6.53-8.4,8.91-11.16,12.29-11.54,16.31-17.44,11.16-15.68,11.16-15.68l8.79-13.55-15.81-6.65Z" style="fill:#ffbf9d"></path><path d="M470.52,363a76.62,76.62,0,0,1-1.85-8.72,78.6,78.6,0,0,1-1.33-8.82,77.12,77.12,0,0,1,1.85,8.73A78.62,78.62,0,0,1,470.52,363Z" style="fill:#e0e0e0"></path><path d="M475.93,363.56c-.14,0-1-4.83-2-10.84s-1.58-10.91-1.44-10.93,1,4.83,2,10.85S476.07,363.54,475.93,363.56Z" style="fill:#e0e0e0"></path><path d="M480,360.34c-.14,0-1-5.15-1.9-11.54s-1.53-11.59-1.38-11.61,1,5.14,1.9,11.54S480.09,360.31,480,360.34Z" style="fill:#e0e0e0"></path><path d="M484.41,356.51c-.14,0-1.05-5-2-11.27s-1.65-11.33-1.51-11.35,1.05,5,2,11.27S484.56,356.49,484.41,356.51Z" style="fill:#e0e0e0"></path><path d="M488.49,351.85c-.14,0-1-4.52-1.85-10.15s-1.48-10.21-1.34-10.24a100.37,100.37,0,0,1,1.85,10.16C488,347.24,488.63,351.83,488.49,351.85Z" style="fill:#e0e0e0"></path><path d="M492.33,345.59a58.89,58.89,0,0,1-1.56-7.76,59.76,59.76,0,0,1-1-7.84,60,60,0,0,1,1.55,7.76A61.16,61.16,0,0,1,492.33,345.59Z" style="fill:#e0e0e0"></path><path d="M495.23,340.26a23.46,23.46,0,0,1-1.13-4.82,24,24,0,0,1-.63-4.92,23.06,23.06,0,0,1,1.14,4.82A24.19,24.19,0,0,1,495.23,340.26Z" style="fill:#e0e0e0"></path><path d="M473,363.54c-.1-.1,4.53-4.6,10.35-10s10.6-9.77,10.7-9.66-4.53,4.6-10.35,10S473.05,363.65,473,363.54Z" style="fill:#e0e0e0"></path><path d="M468.37,362.61c-.1-.1,6-6,13.55-13.12s13.81-12.84,13.91-12.74-6,6-13.55,13.12S468.47,362.72,468.37,362.61Z" style="fill:#e0e0e0"></path><path d="M464.6,360.34c-.1-.11,6.56-6.45,14.88-14.16s15.13-13.88,15.23-13.77-6.57,6.44-14.88,14.15S464.7,360.44,464.6,360.34Z" style="fill:#e0e0e0"></path><path d="M464.34,356.51c-.1-.1,6-6,13.66-13.23s13.93-13,14-12.85-6,6-13.67,13.23S464.44,356.62,464.34,356.51Z" style="fill:#e0e0e0"></path><path d="M467.69,347.91c-.1-.11,4.3-4.09,9.81-8.89s10.06-8.61,10.16-8.5-4.3,4.09-9.82,8.89S467.78,348,467.69,347.91Z" style="fill:#e0e0e0"></path><path d="M472.92,341.22c7.79-8.7,17.36-12.84,21.36-9.26a5,5,0,0,1,1.29,1.93,5.61,5.61,0,0,0-1.71-3.72c-4-3.59-13.56.56-21.36,9.26-6.67,7.45-9.88,15.81-8.16,20.31C463.86,355,467.05,347.77,472.92,341.22Z" style="fill:#263238"></path><path d="M495.57,333.89c.48,4.72-2.72,12-8.58,18.52-7.8,8.7-17.36,12.85-21.36,9.26a4.8,4.8,0,0,1-1.29-1.93,5.6,5.6,0,0,0,1.7,3.73c4,3.58,13.56-.57,21.36-9.27C494.07,346.76,497.28,338.39,495.57,333.89Z" style="fill:#263238"></path><rect x="469.87" y="321.42" width="23.11" height="2" transform="translate(102.2 760.51) rotate(-82.93)" style="fill:#263238"></rect><path d="M609.71,228.89c-.37.12-4.89,4.51-4.89,4.51l-17.42-8.61-3-10.89,3.87-3.46s7.65,2.89,11.29,7.91S609.71,228.89,609.71,228.89Z" style="fill:#ffbf9d"></path><path d="M605.67,234.47a12,12,0,0,0,5.58,2.95c3.09.72,5-.66,8.4.46s4.86.26,5.32-.53-.86-1.57-1.71-1.77-4.46-.52-5.78-1.44-7.77-5.25-7.77-5.25l-4.89,4.51Z" style="fill:#ffbf9d"></path><path d="M609.71,237.75c.16.19,1.48,3.67,2.59,3.8s1.05-.46,1.05-.46l-.93-3.48s1.65-1,1.72-.72,2,4.66,3,5.12,1.44,0,1.44,0l-1.64-5.18,1.64.75s1,5.42,2.24,5.35,1.31-.52,1.31-.52l-1-5.19,1.51,2.66a7.43,7.43,0,0,0,1,0c.39,0,.46-1.47.46-1.47l-3.74-4.14-4.73-3.41-5.87-1.51-3.56,5.6,3.05,1.79Z" style="fill:#ffbf9d"></path><path d="M515.08,239.1l17.18,10s2.64-4,6.78-5a23.26,23.26,0,0,1,6.15-.87s2.76-23-5-25-11.11.51-11.11.51Z" style="fill:#FF725E"></path><path d="M594,283.93,586.75,259l.82-39.89-5.7-14.41s-4.41-8-5.4-8.15S550.33,205,550.33,205c-.49.24-21.72,14-21.72,14l8.55,25.38.82,15.91a100.83,100.83,0,0,1-.35,21.26c-.78,5.67,0,17.13,0,17.13l.23-.15a22.33,22.33,0,0,1,11.93-3.72c5.71-.1,13.49.27,17.4,2.72,4.3,2.7,16.2.62,20.79-2.89C595.76,288.78,594,283.93,594,283.93Z" style="fill:#FF725E"></path><path d="M585.76,197.89l10.17,14s.49,8.33-2.4,12a8.89,8.89,0,0,1-7,3.4l-9.87-30.65A19.2,19.2,0,0,1,585.76,197.89Z" style="fill:#FF725E"></path><path d="M580.73,258.37a10.53,10.53,0,0,1-1.49.1c-.48,0-1.07,0-1.75,0s-1.46,0-2.31-.11a50.23,50.23,0,0,1-6-.79,54.93,54.93,0,0,1-7.14-1.91,56.25,56.25,0,0,1-6.8-2.91,50.69,50.69,0,0,1-5.18-3.08c-.73-.46-1.34-.95-1.89-1.35s-1-.77-1.37-1.08a9,9,0,0,1-1.11-1,7.11,7.11,0,0,1,1.24.84c.38.28.85.63,1.41,1s1.19.83,1.92,1.27a57,57,0,0,0,5.2,3,60.39,60.39,0,0,0,6.75,2.85,61.9,61.9,0,0,0,7.06,1.93,56.4,56.4,0,0,0,5.92.89c.84.11,1.62.14,2.29.19s1.26.07,1.74.08A7.34,7.34,0,0,1,580.73,258.37Z" style="fill:#263238"></path><path d="M579.21,273.3a8.2,8.2,0,0,1-1.45-.1,14.85,14.85,0,0,1-1.67-.24,21.82,21.82,0,0,1-2.2-.46,26.31,26.31,0,0,1-2.62-.76c-.94-.28-1.91-.69-2.93-1.1a40.45,40.45,0,0,1-6.29-3.46,39.81,39.81,0,0,1-5.5-4.6,30.87,30.87,0,0,1-2.09-2.33,25.16,25.16,0,0,1-1.66-2.16c-.5-.67-.88-1.33-1.23-1.89a13.38,13.38,0,0,1-.83-1.47,8.25,8.25,0,0,1-.62-1.31c.1,0,1,1.79,3,4.45.49.66,1,1.38,1.69,2.1s1.34,1.49,2.1,2.27a39.12,39.12,0,0,0,11.64,8c1,.42,2,.84,2.88,1.13a25.75,25.75,0,0,0,2.57.81C577.17,273,579.22,273.19,579.21,273.3Z" style="fill:#263238"></path><path d="M537.33,245.38a4.21,4.21,0,0,1-.28-1c-.14-.64-.34-1.56-.57-2.7-.46-2.28-1.06-5.45-1.7-8.94a19,19,0,0,0-3.33-8.27c-1.34-1.88-2.46-2.81-2.39-2.88a3.61,3.61,0,0,1,.8.62,14.77,14.77,0,0,1,1.89,2,18.18,18.18,0,0,1,3.55,8.39c.63,3.5,1.17,6.67,1.54,9,.19,1.15.33,2.08.41,2.73A3.36,3.36,0,0,1,537.33,245.38Z" style="fill:#263238"></path><path d="M586.31,206.43a6,6,0,0,1,.23,1.14c.11.73.25,1.8.4,3.12.29,2.64.6,6.31.75,10.36s.13,7.73,0,10.39c-.05,1.32-.11,2.4-.16,3.14a4.59,4.59,0,0,1-.15,1.15,5.89,5.89,0,0,1-.06-1.16v-3.14c0-2.65,0-6.32-.19-10.36s-.4-7.7-.6-10.34c-.09-1.24-.17-2.29-.24-3.14A4.52,4.52,0,0,1,586.31,206.43Z" style="fill:#263238"></path><path d="M537.63,300.23v11.64L538.92,326s4.72-10.45,13.31-8.44,17.58,11.59,17.58,11.59l1.35-16.94,18.7,15.08c7.33-8.38,15-13.42,24-17.84L600.8,292.16l-.35-4.18-5-2.18L582,287,539.2,293.7Z" style="fill:#263238"></path><path d="M570,206.51l1.75-29.36c.72-8.43-3.59-15.87-12-16.36h-.78a15.13,15.13,0,0,0-15.07,13.92c-.58,7.31-1.13,15.4-1.08,19.32.11,8.12,8.23,9.38,8.23,9.38,0,.25-.11,2.26-.26,4.68l15.56,8.5Z" style="fill:#ffbf9d"></path><path d="M551,203.41a19.66,19.66,0,0,0,10.57-3.14s-2.57,5.93-10.67,5.21Z" style="fill:#ff9a6c"></path><path d="M557.38,179c.15.17,1.14-.51,2.49-.45s2.32.8,2.47.63-.07-.38-.49-.72a3.43,3.43,0,0,0-2-.72,3.29,3.29,0,0,0-2,.57C557.46,178.63,557.31,178.93,557.38,179Z" style="fill:#263238"></path><path d="M556.26,182.85a1.1,1.1,0,0,0,1.06,1.11,1.05,1.05,0,0,0,1.13-1,1.1,1.1,0,0,0-1.06-1.11A1.05,1.05,0,0,0,556.26,182.85Z" style="fill:#263238"></path><path d="M553.32,188.17a8.22,8.22,0,0,0-2-.37c-.32,0-.62-.09-.67-.31a1.53,1.53,0,0,1,.21-.94l.94-2.43a42.55,42.55,0,0,0,2.11-6.35,42.36,42.36,0,0,0-2.62,6.16c-.31.86-.61,1.67-.9,2.45a1.86,1.86,0,0,0-.16,1.25.79.79,0,0,0,.52.46,2.43,2.43,0,0,0,.54.08A8.63,8.63,0,0,0,553.32,188.17Z" style="fill:#263238"></path><path d="M557.36,174.72c.14.3,1.22.05,2.52.08s2.38.28,2.52,0c.06-.14-.15-.41-.6-.67a4.11,4.11,0,0,0-1.91-.48,4.07,4.07,0,0,0-1.92.43C557.52,174.32,557.3,174.58,557.36,174.72Z" style="fill:#263238"></path><path d="M545,176.68c.13.25,1.2.06,2.48.11s2.33.29,2.49.05-.13-.35-.56-.58a4.5,4.5,0,0,0-1.87-.45,4.62,4.62,0,0,0-1.91.33C545.14,176.34,544.92,176.56,545,176.68Z" style="fill:#263238"></path><path d="M571.05,183.17c.14-.06,5.58-1.66,5.41,3.89s-5.71,4.23-5.72,4.07S571.05,183.17,571.05,183.17Z" style="fill:#ffbf9d"></path><path d="M572.5,189.08s.1.08.26.16a1,1,0,0,0,.72,0,2.37,2.37,0,0,0,1.18-2.11,3.13,3.13,0,0,0-.23-1.39,1.13,1.13,0,0,0-.71-.77.49.49,0,0,0-.57.25c-.08.15,0,.26-.08.27s-.12-.09-.07-.32a.65.65,0,0,1,.23-.34.71.71,0,0,1,.54-.13,1.39,1.39,0,0,1,1,.89,3.32,3.32,0,0,1,.28,1.56,2.52,2.52,0,0,1-1.48,2.36,1,1,0,0,1-.88-.18C572.51,189.22,572.49,189.09,572.5,189.08Z" style="fill:#ff9a6c"></path><path d="M579.06,174.74c-1-2-1.12-4.39-1.59-6.61s-1.52-4.57-3.6-5.48h0a5.84,5.84,0,0,0-5.9.13c-.18-2.9-2.54-5.36-5.3-6.3a18.78,18.78,0,0,0-10.06.06c-2.14.69-4.27,2.26-6.9,4.61a26.69,26.69,0,0,0-3.07,3.22l-3,7.36,1.81,4.11a8.21,8.21,0,0,0,.35.83v0l1.28,8.47c.28-2.26.69-10.18,1-12.44a12.73,12.73,0,0,0,9.33-3.52c1.34-1.29,2.44-2.94,4.16-3.64,2.22-.91,4.71.05,6.91,1l-.09-.09a10,10,0,0,1,3,2.48,31.53,31.53,0,0,0,.41,13.43c.16.66.65,2,1.26,2.32,1.21.57,1.63-.67,2.43-1.29a3.26,3.26,0,0,1,2.3-.39,48.68,48.68,0,0,0,1.93-5.64,5.1,5.1,0,0,0,2.32.32l-.6-1.76a2.69,2.69,0,0,0,1,.52.89.89,0,0,0,1-.34C579.52,175.67,579.27,175.16,579.06,174.74Z" style="fill:#263238"></path><path d="M565.31,163.53a6,6,0,0,1,.76.8,5.73,5.73,0,0,1,1,2.77,9.35,9.35,0,0,1,.06,2.07c0,.74-.16,1.53-.28,2.37a19.88,19.88,0,0,0-.25,2.64,8.4,8.4,0,0,0,.08,1.41,2.92,2.92,0,0,0,.47,1.4,1.21,1.21,0,0,0,1.11.46,1.81,1.81,0,0,0,1.07-.5,4.26,4.26,0,0,0,.93-2h-.18a7.2,7.2,0,0,0,.86,1.76,2.45,2.45,0,0,0,1.51,1,1.53,1.53,0,0,0,.85-.09,1.31,1.31,0,0,0,.6-.51,1.34,1.34,0,0,0,.22-.71,1,1,0,0,0-.21-.64l-.09.07a5.16,5.16,0,0,0,1.64,1.42,3.76,3.76,0,0,0,.52.25c.12.05.19.07.19.06l-.18-.09c-.11-.06-.29-.14-.5-.27a5.48,5.48,0,0,1-1.58-1.44l-.09.07a1,1,0,0,1,0,1.2,1.24,1.24,0,0,1-.55.46,1.49,1.49,0,0,1-.76.07,2.28,2.28,0,0,1-1.4-.92,6.53,6.53,0,0,1-.83-1.72l-.09-.27-.08.27a4.09,4.09,0,0,1-.88,1.91,1.57,1.57,0,0,1-1,.45,1,1,0,0,1-.94-.39,2.68,2.68,0,0,1-.43-1.31,9.14,9.14,0,0,1-.09-1.38,21.79,21.79,0,0,1,.24-2.62c.11-.83.23-1.63.27-2.38a10.23,10.23,0,0,0-.08-2.1,5.79,5.79,0,0,0-1.12-2.79A3.29,3.29,0,0,0,565.31,163.53Z" style="fill:#455a64"></path><path d="M539.78,169.59s0,0,.06.06l.19.16a3.63,3.63,0,0,0,.32.25c.14.09.29.19.48.29a7.17,7.17,0,0,0,3.41.87,9.23,9.23,0,0,0,5-1.45,16,16,0,0,0,4.53-4.52c.66-.94,1.21-1.9,1.8-2.79a10.78,10.78,0,0,1,2-2.33,5.53,5.53,0,0,1,2.43-1.24,4,4,0,0,1,1.24-.06,4.43,4.43,0,0,1,1.11.3,4.7,4.7,0,0,1,2.43,2.38,6,6,0,0,1,.33,1.24v-.08l0-.25a3.77,3.77,0,0,0-.24-.94,4.71,4.71,0,0,0-.82-1.29,4.8,4.8,0,0,0-1.63-1.18,4.17,4.17,0,0,0-1.14-.32,4.33,4.33,0,0,0-1.29,0,5.65,5.65,0,0,0-2.51,1.27,10.61,10.61,0,0,0-2,2.36c-.6.89-1.15,1.85-1.81,2.78a15.72,15.72,0,0,1-4.46,4.48,9.16,9.16,0,0,1-4.91,1.47,7.33,7.33,0,0,1-3.38-.81A10,10,0,0,1,539.78,169.59Z" style="fill:#455a64"></path><path d="M545,178.63c.15.17,1.13-.51,2.49-.45s2.32.8,2.47.63-.07-.38-.49-.72a3.36,3.36,0,0,0-2-.71,3.21,3.21,0,0,0-2,.56C545.1,178.25,545,178.55,545,178.63Z" style="fill:#263238"></path><path d="M545.31,181.8a1.11,1.11,0,0,0,1.06,1.11,1.05,1.05,0,0,0,1.13-1,1.1,1.1,0,0,0-1.06-1.11A1.05,1.05,0,0,0,545.31,181.8Z" style="fill:#263238"></path><path d="M543.33,163.5a3.48,3.48,0,0,1-3,1.44,8.67,8.67,0,0,1-1.19-.43c-.41.22-.39,1.58-.14,2a7.39,7.39,0,0,0,.79.93c-1.37.63-2.56.21-3.94-.39a6.93,6.93,0,0,0,3.79,5.81,2.43,2.43,0,0,0,2.23.18,2.82,2.82,0,0,0,1.08-1.68,30.44,30.44,0,0,0,1.44-7.37Z" style="fill:#263238"></path><path d="M552.85,192.68s.3.18.83.17a3.18,3.18,0,0,0,1.94-.68,3.3,3.3,0,0,0,1.14-1.72c.13-.52.08-.85,0-.85s-.11.31-.29.76a3.83,3.83,0,0,1-1.12,1.5,3.74,3.74,0,0,1-1.72.72C553.18,192.65,552.86,192.62,552.85,192.68Z" style="fill:#263238"></path><path d="M588.64,298.22c0,.08-1.12.43-2.89,1.18a33.71,33.71,0,0,0-6.48,3.69,33.21,33.21,0,0,0-5.48,5.07c-1.25,1.45-1.93,2.44-2,2.39a2.59,2.59,0,0,1,.39-.75,19.72,19.72,0,0,1,1.33-1.88,27.87,27.87,0,0,1,5.45-5.25,28.26,28.26,0,0,1,6.66-3.61,18,18,0,0,1,2.19-.69A2.43,2.43,0,0,1,588.64,298.22Z" style="fill:#455a64"></path><path d="M558.19,301.71a7.09,7.09,0,0,1,2.63.18,13.76,13.76,0,0,1,5.75,2.71,13.57,13.57,0,0,1,3.89,5,6.66,6.66,0,0,1,.75,2.53c-.08,0-.35-.95-1.08-2.37a15.07,15.07,0,0,0-3.88-4.78,15.27,15.27,0,0,0-5.51-2.75C559.19,301.85,558.19,301.8,558.19,301.71Z" style="fill:#455a64"></path><g style="opacity:0.30000000000000004"><path d="M555.63,267.75a68.68,68.68,0,0,0,26.65,9.72,5.75,5.75,0,0,1-4.49,2.06,17,17,0,0,1-5-.9,46.33,46.33,0,0,1-9.95-3.72,16,16,0,0,1-7.21-7.57"></path></g></g><g id="freepik--character-1--inject-2"><path d="M225.54,293.17s-3,20.69-9,25-24,.21-24,.21l-38.6-13.32,3.91-12.43,44,5.91.57-6.77Z" style="fill:#d8765f"></path><path d="M172.36,287.57,170.23,315s-7.3,14.67-8.77,26.4c-1.18,9.42-4.69,34.06-4.69,34.06l12,3.15s21-50.77,22.7-58c1.82-7.9,6.84-33,6.84-33Z" style="fill:#d8765f"></path><path d="M178.33,235.42s-8.38,15.69-8.13,21.8,0,22.92,0,22.92-2.81,7.9,0,11.21S200,292.62,200,292.62l11.46-46.1v-8.36Z" style="fill:#263238"></path><path d="M233,238c-.39-.44-1.06,12.27-1.1,22,0,8.95-3.36,33.27-3.36,33.27L200,292.62l8.15-51.19.76-3.48Z" style="fill:#263238"></path><path d="M155.2,305.62l-2,.33S140.69,320.88,137.37,320l11.32-34.07,3.34,1.26,8,5.65C156,297.13,154.8,299,155.2,305.62Z" style="fill:#455a64"></path><g style="opacity:0.6000000000000001"><path d="M155.1,292.4a1.47,1.47,0,0,0-1.27-1.49,1.43,1.43,0,0,0-1.49,1.25,1.56,1.56,0,0,0,1.36,1.57,1.46,1.46,0,0,0,1.4-1.47" style="fill:#fff"></path></g><g style="opacity:0.6000000000000001"><path d="M148.69,285.93l2.69,1-11.84,32.29s-1.16,1.3-2.17.77Z" style="fill:#fff"></path></g><path d="M153.07,306c-.17-.06,0-.92-.23-1.92s-.81-1.66-.7-1.79,1,.43,1.3,1.64S153.21,306.12,153.07,306Z" style="fill:#263238"></path><path d="M150.4,309.12c-.17,0-.21-.83-.73-1.63s-1.21-1.21-1.14-1.37,1,0,1.66,1.05S150.56,309.17,150.4,309.12Z" style="fill:#263238"></path><path d="M145.45,309.73c0-.16.93-.12,1.69.61s.88,1.63.72,1.65-.49-.62-1.13-1.21S145.41,309.9,145.45,309.73Z" style="fill:#263238"></path><path d="M157,371.44s9.32,7.86,14.73,2.35l1,3L176.45,398a2.76,2.76,0,0,1-1.91,3.16,2.83,2.83,0,0,1-2.86-.82c-3.74-4.2-17.43-19.7-17.1-21.6l.54-5.06a2.59,2.59,0,0,1,1.91-2.21Z" style="fill:#455a64"></path><g style="opacity:0.6000000000000001"><path d="M174,401.22,154.74,377l-.1,1.11a3,3,0,0,0,.78,2.53c1.51,2.45,5.82,8,16.18,19.71a2.78,2.78,0,0,0,2.43.92Z" style="fill:#fff"></path></g><g style="opacity:0.6000000000000001"><path d="M158.19,374a1.6,1.6,0,0,1,.26,2.16,1.64,1.64,0,0,1-2.19.26,1.55,1.55,0,1,1,2.05-2.31" style="fill:#fff"></path></g><path d="M169,389.25a8.07,8.07,0,0,1,2.53-1.82,8.58,8.58,0,0,1,3.14-.29c0-.06-.29-.3-.91-.44a4.43,4.43,0,0,0-2.44.19,4.27,4.27,0,0,0-2,1.44C169,388.84,168.88,389.22,169,389.25Z" style="fill:#263238"></path><path d="M170.54,392.92A23.84,23.84,0,0,1,173,392a21.32,21.32,0,0,1,2.65-.09c.09-.13-1.15-.8-2.76-.48S170.4,392.84,170.54,392.92Z" style="fill:#263238"></path><path d="M165.8,384.44a27.41,27.41,0,0,1,3.73-1.65c2.16-.63,4-.36,4.06-.54a6.31,6.31,0,0,0-4.23,0A6.1,6.1,0,0,0,165.8,384.44Z" style="fill:#263238"></path><path d="M165.92,378.12c.06.16,1.6-.31,3.53-.2s3.42.7,3.5.54a5.48,5.48,0,0,0-3.47-1.11A5.39,5.39,0,0,0,165.92,378.12Z" style="fill:#263238"></path><path d="M170.55,378a2,2,0,0,0-.05-1,6.86,6.86,0,0,0-1.05-2.52,3.16,3.16,0,0,0-1.48-1.34,1.12,1.12,0,0,0-1.22.34,1.71,1.71,0,0,0-.32,1.22,3.89,3.89,0,0,0,3.74,3.21,4.52,4.52,0,0,0,4.21-2.67,1.52,1.52,0,0,0,0-1.28,1.12,1.12,0,0,0-1.19-.46,4,4,0,0,0-1.68,1,7.92,7.92,0,0,0-1.64,2.18,2.33,2.33,0,0,0-.32.94,12,12,0,0,1,2.24-2.82,3.6,3.6,0,0,1,1.49-.88.59.59,0,0,1,.65.25,1,1,0,0,1,0,.84,4,4,0,0,1-3.67,2.28,3.38,3.38,0,0,1-3.21-2.69,1.18,1.18,0,0,1,.18-.85.6.6,0,0,1,.67-.21,2.86,2.86,0,0,1,1.27,1.12A9.91,9.91,0,0,1,170.55,378Z" style="fill:#263238"></path><path d="M215,249.82a3.08,3.08,0,0,1-.46.63l-1.41,1.68L208,258.08l0-.1-2.69,12.07c-1.42,6.25-2.73,11.9-3.7,16-.48,2-.88,3.61-1.18,4.83-.13.52-.25.95-.34,1.31a1.7,1.7,0,0,1-.16.45,1.52,1.52,0,0,1,.05-.47c.07-.37.16-.8.26-1.33.25-1.23.6-2.88,1-4.87.88-4.1,2.14-9.77,3.55-16l2.77-12.05v-.05l0,0L213,252l1.5-1.6A4.09,4.09,0,0,1,215,249.82Z" style="fill:#455a64"></path><path d="M168.8,378.63s0-.08.06-.23.14-.39.23-.65c.23-.61.55-1.44.94-2.48.85-2.19,2.05-5.29,3.53-9.09,3.05-7.7,7.22-18.26,11.84-29.92,1.39-3.5,2.74-6.89,4-10.13.63-1.62,1.34-3.16,1.8-4.73a29.55,29.55,0,0,0,1-4.62h0l3.83-17.48c.47-2.08.85-3.74,1.11-4.92.13-.54.24-1,.32-1.3a2.19,2.19,0,0,1,.13-.44,2.63,2.63,0,0,1-.06.46l-.24,1.31c-.24,1.19-.58,2.86-1,4.95-.9,4.3-2.16,10.34-3.65,17.52v0a28.42,28.42,0,0,1-1,4.71c-.46,1.6-1.17,3.16-1.8,4.78l-4,10.13-12,29.85c-1.54,3.78-2.79,6.86-3.68,9l-1,2.45-.28.63A.72.72,0,0,1,168.8,378.63Z" style="fill:#8d4032"></path><path d="M206.07,306.34a9.7,9.7,0,0,1-4.34-7.8,31.22,31.22,0,0,0,1.67,4.18A30.62,30.62,0,0,0,206.07,306.34Z" style="fill:#8d4032"></path><path d="M162,338a1.52,1.52,0,0,1,0-.49q.08-.56.18-1.38a47.24,47.24,0,0,1,1.14-5,84,84,0,0,1,6.34-15.7l.29-.53,0,.11c.51-6.46,1-12.27,1.36-16.47.19-2,.34-3.71.46-5l.15-1.34a1.53,1.53,0,0,1,.09-.47,1.7,1.7,0,0,1,0,.47c0,.37,0,.82-.06,1.36-.08,1.25-.18,2.93-.3,5-.28,4.21-.7,10-1.2,16.48v0l0,.05-.28.52a93.06,93.06,0,0,0-6.45,15.56c-.63,2.06-1,3.77-1.29,4.94-.11.55-.2,1-.28,1.37A1.78,1.78,0,0,1,162,338Z" style="fill:#8d4032"></path><polygon points="139.28 96.47 129.77 124.94 131.58 126.61 141.52 96.85 139.28 96.47" style="fill:#263238"></polygon><path d="M131.54,123.33h0a3.05,3.05,0,0,1,1.69,3.6l-5.35,19.53a2.83,2.83,0,0,1-3.66,2l-.38-.13a3,3,0,0,1-1.87-3.73l5.74-19.39A2.82,2.82,0,0,1,131.54,123.33Z" style="fill:#455a64"></path><path d="M135.47,146.73c.26,1.53,13.25,25,13.25,25l21.63-6.7,2.85,17.68s-26.27,12.43-30.34,7.07-14-37.09-14-37.09Z" style="fill:#d8765f"></path><path d="M135.57,147s.38-5.82-.57-8.75-2.78-5.07-3.31-8-2-1.17-2.41-.15.07,2.12.56,4.8-3.51,10.18-1.65,15.19l.68,2.54Z" style="fill:#d8765f"></path><path d="M125.88,128.69a1.68,1.68,0,0,0-2.2.88l.35,2.06s-2.27,0-2.35,1.69l.65,1.77a1.78,1.78,0,0,0-1,2,4.89,4.89,0,0,0,.81,2.29s-1.7.24-1.48,1.83-.22,2.18,1.3,3.32l1.58-3.5,1.56-.35s1.42,1.49,1.91,1.49,1.83-.47,1-2.57c0,0,1.37-.14.43-2.33,0,0,1.52-.61.24-2.49a11.57,11.57,0,0,0-2.76-2.86s1.31-.71,1.05-1.65A3.66,3.66,0,0,0,125.88,128.69Z" style="fill:#d8765f"></path><path d="M141.52,97.19c-.13.06-2.74-5.21-5.82-11.77s-5.48-11.93-5.35-12,2.74,5.21,5.82,11.77S141.65,97.12,141.52,97.19Z" style="fill:#e0e0e0"></path><path d="M147.51,97.19c-.14,0-3.22-6.51-6.89-14.67s-6.53-14.82-6.4-14.88,3.21,6.5,6.88,14.67S147.64,97.13,147.51,97.19Z" style="fill:#e0e0e0"></path><path d="M151.46,94.74c-.13.06-3.47-7.07-7.45-15.92s-7.1-16.07-7-16.13,3.47,7.06,7.45,15.92S151.59,94.68,151.46,94.74Z" style="fill:#e0e0e0"></path><path d="M155.93,92c-.13.06-3.61-7.4-7.77-16.65s-7.43-16.8-7.3-16.86,3.61,7.39,7.78,16.65S156.07,91.91,155.93,92Z" style="fill:#e0e0e0"></path><path d="M159.66,88.24c-.13.06-3.5-7.15-7.53-16.11s-7.19-16.27-7.06-16.33,3.5,7.16,7.53,16.12S159.79,88.19,159.66,88.24Z" style="fill:#e0e0e0"></path><path d="M162.07,81.37c-.13.06-3-5.9-6.38-13.3s-6-13.46-5.91-13.52,3,5.89,6.38,13.3S162.21,81.31,162.07,81.37Z" style="fill:#e0e0e0"></path><path d="M163.11,72a66.69,66.69,0,0,1-3.83-7.53,68.9,68.9,0,0,1-3.35-7.75,67.73,67.73,0,0,1,3.82,7.53A68,68,0,0,1,163.11,72Z" style="fill:#e0e0e0"></path><path d="M150.22,95.75c-.13-.06,2.56-6.33,6-14S162.59,67.9,162.72,68s-2.56,6.33-6,14S150.35,95.81,150.22,95.75Z" style="fill:#e0e0e0"></path><path d="M144.35,97.58c-.14-.06,3.36-8.12,7.81-18s8.15-17.85,8.28-17.79-3.36,8.12-7.81,18S144.48,97.64,144.35,97.58Z" style="fill:#e0e0e0"></path><path d="M139.28,96.47c-.13-.06,3.66-8.86,8.46-19.64s8.81-19.5,8.94-19.44S153,66.24,148.22,77,139.41,96.53,139.28,96.47Z" style="fill:#e0e0e0"></path><path d="M135.57,92.37c-.13-.06,3.44-8.49,8-18.82s8.33-18.67,8.46-18.61-3.44,8.48-8,18.82S135.7,92.42,135.57,92.37Z" style="fill:#e0e0e0"></path><path d="M132.91,87.3c-.13-.06,3.06-7.32,7.14-16.2s7.48-16,7.61-16-3.07,7.31-7.14,16.2S133,87.36,132.91,87.3Z" style="fill:#e0e0e0"></path><path d="M131.81,76.77a85.68,85.68,0,0,1,3.8-8.71,85.42,85.42,0,0,1,4.27-8.48,86.13,86.13,0,0,1-3.8,8.7A87.6,87.6,0,0,1,131.81,76.77Z" style="fill:#e0e0e0"></path><path d="M132.77,71.67c2.73-9.73,9.82-16.56,17-17.12-7.8-.62-15.94,6.53-18.91,17.12-3.25,11.6.94,22.92,9.37,25.28a12.09,12.09,0,0,0,4.14.4,11.58,11.58,0,0,1-2.24-.4C133.71,94.59,129.52,83.27,132.77,71.67Z" style="fill:#263238"></path><path d="M153.92,54.94a11.84,11.84,0,0,0-4.14-.39,11.55,11.55,0,0,1,2.24.39c8.43,2.36,12.62,13.68,9.37,25.28-2.73,9.73-9.82,16.56-17,17.13,7.8.61,15.94-6.54,18.91-17.13C166.54,68.62,162.35,57.3,153.92,54.94Z" style="fill:#263238"></path><path d="M241.23,154.11s17.32,1,24.19,2.8,34.39,14,34.39,14l-6.3,6.65s-31.05-8-35.16-8.26c-4.81-.26-23-1.64-23-1.64l-1.3-11Z" style="fill:#d8765f"></path><path d="M326.94,167.35s-11.3-1.53-15.09.4c-2.49,1.27-12,3.17-12,3.17l-6.3,6.65s6.18,4.17,9.74,5.44,4.33,3.52,6.88,3.42.76-3.42,0-4.44-5.6-.76-4.07-3.82a7.43,7.43,0,0,1,4.07-3.82s8.15,2.7,9.93,2.11-.58-3-4.14-4c0,0,1.25-1.82,2.27-2.07S326.94,172.06,326.94,167.35Z" style="fill:#d8765f"></path><path d="M192,138.34a60.53,60.53,0,0,1-4.58-9.62,21.47,21.47,0,0,1-1.16-10.49c.09-.53,1-4.16,1.56-4.21.38,0,0,3.25.27,3.54a18.35,18.35,0,0,1,4,10.09,48.38,48.38,0,0,1-.12,10.69" style="fill:#263238"></path><path d="M195.33,156.26l-6.24-31.18c-2-8.69,1.45-17.09,10.2-18.81l.82-.11a16,16,0,0,1,17.74,12.36c1.66,7.55,3.4,15.91,3.91,20,1.05,8.5-7.24,11-7.24,11s.11.74.55,3.22l3.11,10.79-20.47,3.42Z" style="fill:#d8765f"></path><path d="M214.52,149.51A20.71,20.71,0,0,1,203,147.75s3.53,6,11.88,4.09Z" style="fill:#8d4032"></path><path d="M216.05,126.34a1.23,1.23,0,0,1-1,1.38,1.17,1.17,0,0,1-1.4-.92,1.22,1.22,0,0,1,1-1.38A1.17,1.17,0,0,1,216.05,126.34Z" style="fill:#263238"></path><path d="M216.56,122.51c-.13.18-1.14-.37-2.44-.19s-2.17,1-2.33.82,0-.36.41-.72a3.3,3.3,0,0,1,1.83-.86,3.19,3.19,0,0,1,2,.35C216.45,122.16,216.62,122.43,216.56,122.51Z" style="fill:#263238"></path><path d="M204.69,128.37a1.22,1.22,0,0,1-1,1.38,1.17,1.17,0,0,1-1.4-.92,1.23,1.23,0,0,1,1-1.38A1.17,1.17,0,0,1,204.69,128.37Z" style="fill:#263238"></path><path d="M203.83,124.56c-.13.18-1.14-.37-2.44-.19s-2.17,1-2.33.82,0-.36.41-.72a3.34,3.34,0,0,1,3.81-.51C203.72,124.22,203.89,124.48,203.83,124.56Z" style="fill:#263238"></path><path d="M209.87,133.93a9.37,9.37,0,0,1,2.07-.67c.33-.08.63-.19.66-.42a1.82,1.82,0,0,0-.36-1l-1.33-2.4a44.29,44.29,0,0,1-3.12-6.32,44.11,44.11,0,0,1,3.62,6.06l1.29,2.42a1.93,1.93,0,0,1,.35,1.28.82.82,0,0,1-.48.56,3,3,0,0,1-.55.16A8.07,8.07,0,0,1,209.87,133.93Z" style="fill:#263238"></path><path d="M203.66,120.76c-.17.34-1.45,0-3,0s-2.84.28-3-.06c-.07-.16.19-.47.72-.76a5.23,5.23,0,0,1,4.59,0C203.48,120.28,203.74,120.59,203.66,120.76Z" style="fill:#263238"></path><path d="M216.09,118.19c-.16.37-1.28.43-2.5.83s-2.18,1-2.52.74c-.16-.1-.09-.44.27-.86a4.16,4.16,0,0,1,1.86-1.16,4.06,4.06,0,0,1,2.18-.11C215.91,117.77,216.15,118,216.09,118.19Z" style="fill:#263238"></path><path d="M190.64,131.27c-.16-.05-6.06-.93-5.08,4.84s6.57,3.6,6.55,3.43S190.64,131.27,190.64,131.27Z" style="fill:#d8765f"></path><path d="M190,137.65s-.08.09-.24.2a1,1,0,0,1-.75.14,2.53,2.53,0,0,1-1.53-2,3.37,3.37,0,0,1,0-1.49,1.19,1.19,0,0,1,.62-.9.52.52,0,0,1,.64.17c.11.15.09.27.12.28s.11-.12,0-.35a.6.6,0,0,0-.28-.32.79.79,0,0,0-.59-.06,1.43,1.43,0,0,0-.89,1.08,3.29,3.29,0,0,0-.08,1.66,2.64,2.64,0,0,0,1.89,2.25,1.13,1.13,0,0,0,.89-.31C190,137.8,190,137.66,190,137.65Z" style="fill:#8d4032"></path><path d="M212.41,109.64c.84-.68-2.49-3.2-5-3.83-3.75-1-9.21-1-12.24.5-3.65,1.78-6.5,4.27-7.8,8.11a22.91,22.91,0,0,0-.48,12,7,7,0,0,0,1.44,3.38c1,1.13,2.72,1.66,3,3.43a2.47,2.47,0,0,0,.91,1.65c1.26.93,2.36-.35,2.76-1.52.86-2.48.52-5.2.17-7.8a17.19,17.19,0,0,0-1.34-5.42c-.46-.91-1.07-1.74-1.47-2.67a3.51,3.51,0,0,1-.11-2.95,4.29,4.29,0,0,1,.38-.56,6.14,6.14,0,0,1,5.76-2.2c3.45.57,9.3,1.3,10.55-.06a9,9,0,0,0,2.11-3.08Z" style="fill:#263238"></path><path d="M206,135.46c.19-.05.44,1.28,1.74,2s2.69.32,2.73.5-.27.32-.86.44a3.35,3.35,0,0,1-2.26-.34,2.91,2.91,0,0,1-1.38-1.7C205.78,135.83,205.86,135.47,206,135.46Z" style="fill:#263238"></path><polygon points="251.66 153.52 250.24 174.95 229.24 174.36 228.51 150.15 251.66 153.52" style="fill:#455a64"></polygon><path d="M233.88,241.26s.47-25.56.21-37.28c-.17-7.94.75-30.93-.21-44.48a12.2,12.2,0,0,0-4.9-9.27s-8.28-.57-13.21,1.36c0,0-3.39,14.21-21.1,2.9,0,0-18.17,2.44-19.68,6.69L176.18,180l3.66,40s-4.73,14.23-4.73,18.31l30.68,6.59a42.4,42.4,0,0,0,28.09-3.64Z" style="fill:#455a64"></path><polygon points="176.55 159.5 158.51 167.04 165.37 189.22 177.69 183.84 176.55 159.5" style="fill:#455a64"></polygon><path d="M234.48,158.33c.14,0,.26,10.48.26,23.4s-.12,23.39-.26,23.39-.26-10.47-.26-23.39S234.34,158.33,234.48,158.33Z" style="fill:#263238"></path><path d="M173.2,170.27a8.08,8.08,0,0,1,.46,1.41c.26.91.61,2.24,1,3.9.8,3.3,1.77,7.91,2.56,13s1.24,9.81,1.47,13.21c.11,1.69.18,3.07.2,4a7.73,7.73,0,0,1,0,1.48,7.83,7.83,0,0,1-.19-1.47c-.09-1-.21-2.39-.36-4-.32-3.38-.83-8-1.62-13.16s-1.69-9.72-2.4-13c-.34-1.59-.63-2.91-.85-3.93A7.55,7.55,0,0,1,173.2,170.27Z" style="fill:#263238"></path><path d="M210,226.65a15.15,15.15,0,0,1-3.15.46,66.12,66.12,0,0,1-7.67.25,69.28,69.28,0,0,1-7.66-.6,17.43,17.43,0,0,1-3.12-.6,22.33,22.33,0,0,1,3.17.23c1.94.18,4.64.38,7.62.45s5.68,0,7.64-.1A23,23,0,0,1,210,226.65Z" style="fill:#263238"></path></g></svg>