<svg xmlns="http://www.w3.org/2000/svg" viewBox="0 0 750 500"><g id="freepik--background-simple--inject-2"><path d="M593.58,89.87c30.54,60.84,20.88,137.65-17.29,194S474.63,376.76,407.86,390.05c-47.66,9.49-98.93,7.56-142.48-14s-77.8-65-80.41-113.48c-1-18.33,2.9-37.79,15.14-51.48,19.53-21.85,52.87-22.62,82.16-21.72s62.62.22,82.24-21.55c15.09-16.73,17.31-41,25.25-62.06C403.27,69.92,435.87,42,473.34,34a108.88,108.88,0,0,1,15.77-2.14C530.32,29.32,569.4,50.52,591,85.7Z" style="fill:#ebebeb"></path></g><g id="freepik--Floor--inject-2"><path d="M523.93,424.65c0,.14-102.38.26-228.64.26s-228.66-.12-228.66-.26,102.35-.26,228.66-.26S523.93,424.5,523.93,424.65Z" style="fill:#263238"></path></g><g id="freepik--Couch--inject-2"><path d="M171.3,242.77H156.38a18,18,0,0,0-17.71,15.08l-12,74a25.31,25.31,0,0,0,25,29.4h312a14.5,14.5,0,0,0,14-18.15h0a14.48,14.48,0,0,0-14-10.84h0a21.78,21.78,0,0,1-20.64-14.84l-19.25-57.11a22.37,22.37,0,0,0-21-15.23Z" style="fill:#455a64"></path><polyline points="164.51 381.72 155.53 424.64 164 424.64 174.21 381.72 164.51 381.72" style="fill:#263238"></polyline><polyline points="459.6 381.72 468.93 424.64 460.36 424.64 449.89 381.72 459.6 381.72" style="fill:#263238"></polyline><polyline points="423.81 381.72 432.08 421.27 423.52 421.27 414.11 381.72 423.81 381.72" style="fill:#e0e0e0"></polyline><polyline points="133.32 381.72 124.28 424.64 132.85 424.64 143.03 381.72 133.32 381.72" style="fill:#263238"></polyline><path d="M106.71,332.38v44.3a12.94,12.94,0,0,0,13,12.91H465.53a12.94,12.94,0,0,0,13-12.91L478,340.55Z" style="fill:#455a64"></path><path d="M431.13,282l-.64.49-1.9,1.4c-.82.64-1.89,1.33-3.17,2.14-.64.41-1.32.87-2.07,1.31l-2.43,1.37a78.68,78.68,0,0,1-13.13,5.76,84.85,84.85,0,0,1-18.56,4,83.46,83.46,0,0,1-23-1c-8.18-1.53-16.52-4.67-25.05-8.36s-17.42-7.84-27.16-10.54a110.91,110.91,0,0,0-61.72.5c-9.68,2.91-18.65,6.84-27.4,10s-17.34,5.62-25.61,6.4a58.53,58.53,0,0,1-12-.08,46.4,46.4,0,0,1-10.74-2.65,75.1,75.1,0,0,1-9.14-4.19c-2.81-1.47-5.4-3-7.85-4.3a93.31,93.31,0,0,0-12.89-6.21,43.12,43.12,0,0,0-8.75-2.2l-2.35-.19c-.53,0-.8-.08-.8-.08s.27,0,.8,0,1.33.06,2.36.13a41.73,41.73,0,0,1,8.81,2.12,93,93,0,0,1,13,6.14c2.45,1.34,5.06,2.81,7.87,4.27a76.85,76.85,0,0,0,9.11,4.14A46.71,46.71,0,0,0,187.36,295a57.61,57.61,0,0,0,11.9,0c8.23-.79,16.79-3.19,25.5-6.42s17.69-7.12,27.42-10.05a111.13,111.13,0,0,1,62-.5c9.8,2.72,18.68,6.93,27.22,10.58s16.82,6.85,24.94,8.38a83.52,83.52,0,0,0,22.86,1,85.81,85.81,0,0,0,18.5-3.91,80,80,0,0,0,13.13-5.67l2.44-1.34c.75-.44,1.43-.89,2.07-1.29,1.29-.79,2.37-1.48,3.2-2.1l1.93-1.35C430.9,282.15,431.13,282,431.13,282Z" style="fill:#e0e0e0"></path><path d="M475.85,319.91l-1-.28c-.63-.16-1.54-.53-2.78-.8a47.59,47.59,0,0,0-11-1.46,72.84,72.84,0,0,0-17.45,2,180.77,180.77,0,0,0-22.27,7c-8.14,2.92-17.06,6.31-27.11,8.19a63,63,0,0,1-15.76,1,73,73,0,0,1-16.44-3.22c-11-3.33-21.81-8.75-33.67-12.49a90.13,90.13,0,0,0-18.53-3.79,117.34,117.34,0,0,0-19.5-.22c-13.17.88-25.85,3.46-38,6.07-6.09,1.3-12.06,2.65-17.94,3.86s-11.66,2.24-17.33,3.05a166,166,0,0,1-16.67,1.6c-2.72.16-5.39.13-8,.14s-5.23-.14-7.77-.43a82.19,82.19,0,0,1-27.38-7c-3.95-1.8-7.51-3.9-10.92-5.78a88.63,88.63,0,0,0-9.86-4.86,29.26,29.26,0,0,0-17.2-2,20.61,20.61,0,0,0-6,2.18,16.64,16.64,0,0,0-3.71,2.85,13.55,13.55,0,0,0-1.79,2.26c-.35.55-.54.83-.54.83s.16-.3.49-.86a13.39,13.39,0,0,1,1.76-2.3,16.31,16.31,0,0,1,3.72-2.91,20.3,20.3,0,0,1,6-2.25,29.39,29.39,0,0,1,17.34,1.92,88.19,88.19,0,0,1,9.92,4.84c3.42,1.87,7,3.95,10.92,5.74a81.94,81.94,0,0,0,27.26,6.87c2.53.28,5.11.3,7.74.41s5.29,0,8-.15A165.18,165.18,0,0,0,217,328.38c5.66-.81,11.43-1.85,17.3-3.05s11.84-2.57,17.93-3.88c12.18-2.62,24.88-5.21,38.1-6.09a117.22,117.22,0,0,1,19.58.23,90.17,90.17,0,0,1,18.63,3.81c11.92,3.77,22.72,9.19,33.66,12.52a72.18,72.18,0,0,0,16.33,3.22,62.7,62.7,0,0,0,15.65-1c10-1.86,18.92-5.22,27.07-8.11a176.9,176.9,0,0,1,22.32-6.93,72.45,72.45,0,0,1,17.53-1.93,46.63,46.63,0,0,1,11,1.55c1.25.29,2.15.68,2.78.86Z" style="fill:#e0e0e0"></path><path d="M402.69,244.14l-.49.46-1.49,1.31c-.67.54-1.54,1.19-2.57,1.94s-2.28,1.52-3.75,2.29a50.7,50.7,0,0,1-11.2,4.41,71.56,71.56,0,0,1-15.79,2.25,123.87,123.87,0,0,1-19.3-1c-6.91-.81-14.23-2-22-2.88-3.87-.44-7.86-.78-11.93-.9s-8.25,0-12.48.31a251,251,0,0,0-26,3.55c-8.87,1.58-17.53,3.22-26,4.37A196.06,196.06,0,0,1,225.24,262,193.32,193.32,0,0,1,184,257.79a189.92,189.92,0,0,1-26.87-7.8c-1.54-.59-2.92-1.09-4.1-1.57l-3-1.25-1.82-.77-.61-.28s.22.07.63.23l1.84.73,3,1.2c1.18.46,2.56.95,4.11,1.52a196.74,196.74,0,0,0,26.87,7.63,194.74,194.74,0,0,0,41.18,4.05,199.12,199.12,0,0,0,24.4-1.77c8.41-1.16,17.06-2.8,25.94-4.39a253.83,253.83,0,0,1,26.08-3.54c4.25-.32,8.43-.38,12.53-.3s8.09.48,12,.92c7.77.89,15.09,2.1,22,2.93a123.63,123.63,0,0,0,19.24,1.1,72.06,72.06,0,0,0,15.73-2.16A51.06,51.06,0,0,0,394.29,250c1.47-.75,2.69-1.56,3.77-2.24s1.9-1.36,2.59-1.89l1.51-1.27C402.51,244.27,402.69,244.14,402.69,244.14Z" style="fill:#e0e0e0"></path><path d="M477.44,367.78s-.32-.11-.93-.35l-2.71-1.05c-1.19-.47-2.72-.87-4.49-1.44-.9-.26-1.89-.45-2.93-.7l-1.62-.37c-.56-.11-1.15-.19-1.75-.28a76.5,76.5,0,0,0-17.59-.81,131.07,131.07,0,0,0-23.07,3.67c-8.45,2-17.49,4.9-27.26,7.84s-20.31,5.94-31.73,7.39a88.87,88.87,0,0,1-17.63.6,69.7,69.7,0,0,1-18-3.72c-11.87-4.1-22.89-11.1-34.63-17.12A106.55,106.55,0,0,0,275,354c-1.52-.51-3.1-.82-4.64-1.22s-3.11-.67-4.68-.87a83.12,83.12,0,0,0-9.37-.89c-12.47-.42-24.45,1.68-35.51,4.58s-21.36,6.61-31.12,9.62a169.86,169.86,0,0,1-27.61,6.58,84.62,84.62,0,0,1-23.39,0,61.45,61.45,0,0,1-17-4.92,50.55,50.55,0,0,1-9.53-5.82c-2-1.64-2.93-2.56-2.93-2.56s.26.2.76.62,1.23,1.07,2.24,1.85a50.73,50.73,0,0,0,9.55,5.72,61.43,61.43,0,0,0,16.91,4.83,84.55,84.55,0,0,0,23.29-.11,171.27,171.27,0,0,0,27.54-6.62c9.73-3,20-6.72,31.12-9.67s23.11-5,35.65-4.63a81.53,81.53,0,0,1,9.42.9c1.59.19,3.14.57,4.72.86s3.14.72,4.68,1.23A107.28,107.28,0,0,1,293.32,361c11.78,6,22.77,13,34.57,17.11a69.13,69.13,0,0,0,17.88,3.7,88.7,88.7,0,0,0,17.53-.57c11.37-1.44,21.89-4.44,31.66-7.33s18.84-5.83,27.3-7.79a132.08,132.08,0,0,1,23.14-3.6,75.88,75.88,0,0,1,17.65.9c.6.1,1.18.18,1.74.29l1.63.39c1,.26,2,.45,2.93.72,1.77.59,3.3,1,4.49,1.49l2.69,1.11Z" style="fill:#e0e0e0"></path><path d="M453,296.35h6A19.07,19.07,0,0,1,478,315.42v31.34a13.79,13.79,0,0,1-13.79,13.79h-6a24.35,24.35,0,0,1-24.35-24.35V315.42A19.07,19.07,0,0,1,453,296.35Z" style="fill:#455a64"></path><path d="M125.78,296.35h6a19.07,19.07,0,0,1,19.07,19.07v45.13a0,0,0,0,1,0,0H131.06a24.35,24.35,0,0,1-24.35-24.35V315.42A19.07,19.07,0,0,1,125.78,296.35Z" style="fill:#455a64"></path><path d="M153.27,332.78l.75,0,2.2,0,8.45-.05,31.11,0c26.26,0,62.55.18,102.62.44l102.63.58,31.11.14,8.45.05,2.2,0c.5,0,.75,0,.75,0l-.75,0-2.2,0-8.45,0L401,334c-26.26,0-62.55-.18-102.63-.43L195.78,333l-31.11-.13-8.45-.06-2.2,0Z" style="fill:#263238"></path><path d="M150.83,389.59a1.07,1.07,0,0,1,0-.28q0-.31,0-.81c0-.75-.05-1.8-.08-3.12-.05-2.75-.12-6.67-.2-11.48-.17-9.69-.36-23.09-.76-37.87-.26-7.38-.34-14.45-1.34-20.76a29.58,29.58,0,0,0-2.62-8.61,16.26,16.26,0,0,0-5-5.92,22.21,22.21,0,0,0-10.32-4.55,11.38,11.38,0,0,0-1.78-.09c-.51,0-1,.09-1.3.14l-.78.2-.27.05s.08,0,.25-.1l.78-.26c.35-.06.79-.14,1.31-.19a11.5,11.5,0,0,1,1.82.05A22,22,0,0,1,141,300.45a16.56,16.56,0,0,1,5.18,6,29.57,29.57,0,0,1,2.71,8.72c1,6.37,1.13,13.44,1.39,20.83.4,14.79.53,28.18.61,37.87,0,4.82,0,8.73,0,11.48,0,1.33,0,2.37,0,3.13,0,.33,0,.6,0,.81A1.58,1.58,0,0,1,150.83,389.59Z" style="fill:#263238"></path><path d="M128.31,313.2c0,.05-.46,0-1.23.28a5.81,5.81,0,0,0-2.75,1.92,5.36,5.36,0,0,0-1,2.07,4.74,4.74,0,0,0,.12,2.6,5.15,5.15,0,0,0,9.47,1,4.81,4.81,0,0,0,.68-2.52,5.28,5.28,0,0,0-.55-2.23,5.75,5.75,0,0,0-2.26-2.47c-.71-.4-1.16-.5-1.15-.55s.12,0,.34,0a3.93,3.93,0,0,1,.9.33,5.73,5.73,0,0,1,2.5,2.48,5.6,5.6,0,0,1,.65,2.39,5.15,5.15,0,0,1-.7,2.77A5.6,5.6,0,0,1,123,320.21a5.05,5.05,0,0,1-.08-2.85,5.71,5.71,0,0,1,1.15-2.19,5.65,5.65,0,0,1,3-1.88,3.57,3.57,0,0,1,1-.12Q128.31,313.17,128.31,313.2Z" style="fill:#263238"></path><path d="M124.35,333a2.82,2.82,0,0,1-.46-1.39,8.4,8.4,0,0,1,.23-3.54,8.24,8.24,0,0,1,1.66-3.13c.61-.68,1.09-1,1.12-.94a14.39,14.39,0,0,0-2.28,4.21A14.22,14.22,0,0,0,124.35,333Z" style="fill:#263238"></path><path d="M121.05,322.07c-.13-.06,0-.69.63-1.23s1.22-.67,1.27-.53-.42.45-.92.91S121.18,322.13,121.05,322.07Z" style="fill:#263238"></path><path d="M140.87,321.35c-.07,0-.39-.31-1-.73a6.29,6.29,0,0,0-2.67-1,6.48,6.48,0,0,0-2.86.26c-.7.24-1.11.5-1.16.43s.3-.42,1-.77a5.61,5.61,0,0,1,5.89.83C140.7,320.86,140.92,321.31,140.87,321.35Z" style="fill:#263238"></path><path d="M184,242.9a5.17,5.17,0,0,1-.88.12c-.58.07-1.43.14-2.53.19-2.2.13-5.39.08-9.31.11a43.43,43.43,0,0,0-13.54,2,11.43,11.43,0,0,0-6.19,4.79,22.7,22.7,0,0,0-2.65,8.18c-1.78,11.85-3.39,22.57-4.57,30.39-.6,3.85-1.09,7-1.44,9.2-.18,1.05-.32,1.88-.42,2.5a4.79,4.79,0,0,1-.18.86,5.29,5.29,0,0,1,.08-.88c.08-.62.18-1.45.32-2.51.31-2.23.74-5.37,1.27-9.22,1.11-7.79,2.65-18.54,4.43-30.42a22.8,22.8,0,0,1,2.73-8.37A11.1,11.1,0,0,1,154,246.7a14,14,0,0,1,3.6-1.85A42.61,42.61,0,0,1,171.24,243c3.94,0,7.12.11,9.31,0l2.53-.09A5.47,5.47,0,0,1,184,242.9Z" style="fill:#263238"></path><path d="M443.54,332.38c-.14,0-1.38-6.22-2.76-13.95s-2.39-14-2.25-14,1.38,6.22,2.76,13.95S443.68,332.36,443.54,332.38Z" style="fill:#263238"></path><path d="M445.09,389.59a1.07,1.07,0,0,1,0-.28l-.05-.81c0-.75-.08-1.79-.14-3.11-.09-2.74-.23-6.63-.4-11.42-.29-9.69-.69-23-1.12-37.71a148.33,148.33,0,0,1,.85-20.76,43.74,43.74,0,0,1,.88-4.61,19.47,19.47,0,0,1,1.5-4.17,13.68,13.68,0,0,1,1.11-1.81,18.35,18.35,0,0,1,1.35-1.54,17.76,17.76,0,0,1,3-2.4,17.33,17.33,0,0,1,11-2.81,11.23,11.23,0,0,1,3,.79l.73.36.24.13a14.24,14.24,0,0,0-4-1.08,17.39,17.39,0,0,0-10.74,2.92,17.08,17.08,0,0,0-2.88,2.38,14.58,14.58,0,0,0-1.3,1.5,11.91,11.91,0,0,0-1.06,1.76,28.35,28.35,0,0,0-2.29,8.64,152.16,152.16,0,0,0-.81,20.7c.38,14.71.72,28,1,37.71.1,4.79.18,8.69.23,11.43,0,1.31,0,2.35,0,3.1v.81A.9.9,0,0,1,445.09,389.59Z" style="fill:#263238"></path><path d="M461.73,314.72s-.46,0-1.23.29a5.72,5.72,0,0,0-2.75,1.92,5.46,5.46,0,0,0-1,2.06,4.73,4.73,0,0,0,.12,2.6,5.15,5.15,0,0,0,9.47,1,4.66,4.66,0,0,0,.68-2.51,5.32,5.32,0,0,0-.55-2.24,5.81,5.81,0,0,0-2.26-2.47c-.7-.4-1.16-.49-1.14-.54s.11,0,.33,0a3.54,3.54,0,0,1,.91.33,5.81,5.81,0,0,1,3.14,4.87,5,5,0,0,1-.7,2.76,5.59,5.59,0,0,1-10.33-1.13,5.15,5.15,0,0,1-.09-2.85,5.63,5.63,0,0,1,1.16-2.2,5.72,5.72,0,0,1,3-1.88,3.57,3.57,0,0,1,1-.12Q461.73,314.69,461.73,314.72Z" style="fill:#263238"></path><path d="M457.77,334.47a2.82,2.82,0,0,1-.46-1.39,8.37,8.37,0,0,1,1.9-6.66c.6-.69,1.08-1,1.12-.95a14.32,14.32,0,0,0-2.29,4.22A14.16,14.16,0,0,0,457.77,334.47Z" style="fill:#263238"></path><path d="M454.47,323.59c-.12,0,.06-.69.63-1.22s1.23-.67,1.27-.54-.42.45-.91.92S454.61,323.66,454.47,323.59Z" style="fill:#263238"></path><path d="M474.29,322.87c-.06.05-.38-.31-1-.73a6.36,6.36,0,0,0-5.53-.78c-.71.24-1.11.5-1.16.43s.3-.42,1-.77a5.6,5.6,0,0,1,5.89.83C474.12,322.38,474.34,322.84,474.29,322.87Z" style="fill:#263238"></path></g><g id="freepik--character-2--inject-2"><path d="M398.7,144.82A1.71,1.71,0,0,0,401,147c1.16-.51,1.38-2.06,1.23-3.31s-.51-2.62.08-3.74a8.46,8.46,0,0,1,2.06-2,5.48,5.48,0,0,0,1.77-4.55,4.59,4.59,0,0,0-3-3.78c-1.64-.56-3.71-.16-4.88-1.43-.85-.92-.82-2.35-1.46-3.42-1-1.67-3.24-2-5.18-1.9s-3.92.67-5.78.1c-1.55-.48-2.78-1.64-4.21-2.4a8.5,8.5,0,0,0-11.68,11,5.44,5.44,0,0,0,2.49,2.75" style="fill:#263238"></path><path d="M396.78,177.76l-18.29-1.46c-.11-2.14,0-10.39,0-10.39s-7.6-1.19-7.7-8.79,1.23-25.07,1.23-25.07h0a26.46,26.46,0,0,1,26.56,3.34l1.12.87Z" style="fill:#ffbe9d"></path><path d="M372,143.56c.12.13.87-.44,1.92-.45s1.81.54,1.92.41-.06-.3-.39-.55a2.57,2.57,0,0,0-3.06,0C372,143.26,371.91,143.5,372,143.56Z" style="fill:#263238"></path><path d="M383.34,144.11c.12.13.87-.44,1.91-.45s1.81.54,1.93.41-.06-.3-.4-.55a2.51,2.51,0,0,0-1.53-.49,2.62,2.62,0,0,0-1.53.52C383.4,143.81,383.28,144.05,383.34,144.11Z" style="fill:#263238"></path><path d="M379.14,153a5.21,5.21,0,0,0-1.69-.36c-.28,0-.49-.09-.51-.24a1.52,1.52,0,0,1,.19-.78c.27-.7.55-1.4.83-2.13a29.23,29.23,0,0,0,1.8-5.6c-.16-.06-1.21,2.36-2.35,5.39-.28.74-.53,1.44-.79,2.14a1.77,1.77,0,0,0-.15,1.14.73.73,0,0,0,.47.44,2.23,2.23,0,0,0,.47.06A5.12,5.12,0,0,0,379.14,153Z" style="fill:#263238"></path><path d="M378.47,166.06a16,16,0,0,0,9-2.55s-2.12,5-9,4.34Z" style="fill:#eb996e"></path><path d="M371.9,134s4.45,2.57,10.68,0c4.08-1.68,8.75-2.3,9.7-1.43s.87,4.94,4.69,6.42c0,0-.84,7.72,2.26,7.68s2.07-12.19,2.07-12.19L394,130.22l-8.13-2.17-7.85.52-6.14,1.2Z" style="fill:#263238"></path><path d="M398.81,144.13c.12,0,5.22-1.54,5.05,3.66s-5.35,4-5.35,3.81S398.81,144.13,398.81,144.13Z" style="fill:#ffbe9d"></path><path d="M400.16,149.68s.09.07.24.14a.94.94,0,0,0,.68,0,2.27,2.27,0,0,0,1.1-2,2.94,2.94,0,0,0-.22-1.31,1,1,0,0,0-.65-.71.45.45,0,0,0-.55.23c-.07.14,0,.25-.07.25s-.11-.09-.06-.3a.62.62,0,0,1,.22-.32.69.69,0,0,1,.5-.12,1.31,1.31,0,0,1,.92.84,3.15,3.15,0,0,1,.27,1.46,2.36,2.36,0,0,1-1.39,2.2,1,1,0,0,1-.83-.16C400.16,149.81,400.14,149.69,400.16,149.68Z" style="fill:#eb996e"></path><path d="M402.33,128c0,.16-.81.09-1.68.37s-1.46.76-1.59.65.37-.88,1.42-1.2S402.39,127.88,402.33,128Z" style="fill:#263238"></path><path d="M399.38,124.74a3.56,3.56,0,0,1,.15,2.47c-.27,1.41-1.16,2.25-1.26,2.14s.46-1,.69-2.25S399.2,124.75,399.38,124.74Z" style="fill:#263238"></path><path d="M377.35,139.41c-.16.29-1.15,0-2.35,0s-2.22.11-2.35-.19.9-1,2.4-1S377.52,139.15,377.35,139.41Z" style="fill:#263238"></path><path d="M388.18,139.41c-.15.29-1.15,0-2.35,0s-2.21.11-2.35-.19.9-1,2.4-1S388.35,139.15,388.18,139.41Z" style="fill:#263238"></path><path d="M384.45,152c-.35.15-4.11,1.8-4.83,2.1,0,0,1.77,3.68,3.8,2.91C385.69,156.19,384.45,152,384.45,152Z" style="fill:#263238"></path><path d="M384.75,154.94a1,1,0,0,0-1-.48,3.08,3.08,0,0,0-2.62,1.81,2.12,2.12,0,0,0,2.72.62A1.94,1.94,0,0,0,384.75,154.94Z" style="fill:#eb996e"></path><path d="M392.57,145.38a16.34,16.34,0,0,1-4,1.06,16.66,16.66,0,0,1-4.1.54,16.62,16.62,0,0,1,4-1A16.41,16.41,0,0,1,392.57,145.38Z" style="fill:#fff"></path><path d="M393,147a33.36,33.36,0,0,1-8.08,1.58,16.44,16.44,0,0,1,4-1.05A16.77,16.77,0,0,1,393,147Z" style="fill:#FF725E"></path><path d="M307.54,122.51l8.14,38.08a8.56,8.56,0,0,0,3.48,5.25l27.35,19.07,8.83-17L330.87,154,320.2,121.15Z" style="fill:#ffbe9d"></path><path d="M309.57,76.11s-7.51-3.32-11.23,4.52c0,0-8.77,1.54-9.55,8,0,0-5.71,1.9-7.8,6.36-2.74,5.85,1.27,15.92,5.29,22.2s10.93,9.67,11,11.21c.1,7.52,3.29,7.85,3.29,7.85l38.33-8.7s3.69-3.34,0-7.49l-.1-.11a4.68,4.68,0,0,1-.77-5.16,22,22,0,0,0,.78-16.55,161.19,161.19,0,0,0-6.58-14.84L323.7,47.18a9.37,9.37,0,0,0-11.13-7h0a9.37,9.37,0,0,0-7.21,10.68Z" style="fill:#FF725E"></path><g style="opacity:0.30000000000000004"><path d="M309.57,76.11s-7.51-3.32-11.23,4.52c0,0-8.77,1.54-9.55,8,0,0-5.71,1.9-7.8,6.36-2.74,5.85,1.27,15.92,5.29,22.2s10.93,9.67,11,11.21c.1,7.52,3.29,7.85,3.29,7.85l38.33-8.7s3.69-3.34,0-7.49l-.1-.11a4.68,4.68,0,0,1-.77-5.16,22,22,0,0,0,.78-16.55,161.19,161.19,0,0,0-6.58-14.84L323.7,47.18a9.37,9.37,0,0,0-11.13-7h0a9.37,9.37,0,0,0-7.21,10.68Z"></path></g><path d="M305.92,76.91s-7.52-3.32-11.24,4.52c0,0-8.76,1.54-9.55,7.95,0,0-5.71,1.9-7.8,6.36-2.73,5.85,1.27,15.92,5.29,22.2s10.94,9.67,11,11.21c.1,7.52,3.3,7.85,3.3,7.85l38.33-8.7s3.68-3.34,0-7.49l-.11-.11a4.68,4.68,0,0,1-.77-5.15A22,22,0,0,0,335.14,99a158.18,158.18,0,0,0-6.58-14.84L320,48a9.35,9.35,0,0,0-11.12-7h0a9.35,9.35,0,0,0-7.21,10.67Z" style="fill:#FF725E"></path><path d="M312.28,97a3,3,0,0,1-.07.86,5.76,5.76,0,0,1-1,2.25,6.41,6.41,0,0,1-1.27,1.29,4.59,4.59,0,0,1-2,1,4,4,0,0,1-2.48-.51,9.33,9.33,0,0,1-2.24-1.75,27.36,27.36,0,0,1-3.87-5.31,19.15,19.15,0,0,1-2.63-7.19,7.54,7.54,0,0,1,.63-4.2,5.36,5.36,0,0,1,1.36-1.8,5.73,5.73,0,0,1,2.11-.94,13.79,13.79,0,0,1,4.67-.2,29.9,29.9,0,0,1,4.78.88l-.31.29c-1.45-6.91-3-14.47-4.69-22.36-.47-2.29-1-4.52-1.39-6.79a6.86,6.86,0,0,1,2.45-6.21,6.37,6.37,0,0,1,6.34-1.12,8.24,8.24,0,0,1,4.18,4.63,36.55,36.55,0,0,1,1.54,5.74q.63,2.81,1.22,5.45c.78,3.51,1.51,6.78,2.18,9.76,1.31,6,2.38,10.78,3.12,14.16.35,1.65.63,2.94.82,3.85.09.42.15.75.2,1a2.75,2.75,0,0,1,.06.34,1.4,1.4,0,0,1-.11-.33c-.06-.25-.14-.58-.25-1-.22-.9-.52-2.19-.92-3.83l-3.28-14.12c-.69-3-1.44-6.25-2.24-9.75q-.6-2.64-1.25-5.44a37.25,37.25,0,0,0-1.53-5.65,7.77,7.77,0,0,0-3.93-4.36,5.86,5.86,0,0,0-5.83,1.05,6.39,6.39,0,0,0-2.26,5.75c.42,2.2.93,4.48,1.39,6.76C307.42,67,309,74.59,310.44,81.5l.08.39-.39-.11a30.06,30.06,0,0,0-4.68-.88,13.62,13.62,0,0,0-4.52.17,5.39,5.39,0,0,0-1.94.85,4.82,4.82,0,0,0-1.24,1.65,7.07,7.07,0,0,0-.62,4,18.88,18.88,0,0,0,2.54,7,27.39,27.39,0,0,0,3.76,5.28c1.33,1.4,2.94,2.46,4.47,2.24a4.35,4.35,0,0,0,1.89-.88,6.22,6.22,0,0,0,1.27-1.23,6,6,0,0,0,1.07-2.17A5.61,5.61,0,0,0,312.28,97Z" style="fill:#fff"></path><path d="M306.09,102s.12.13.08.41a3,3,0,0,1-.52,1.08,9.05,9.05,0,0,1-1.27,1.39,5.37,5.37,0,0,1-2.18,1.26,12,12,0,0,1-6.43-.46A14.74,14.74,0,0,1,294,105a8.28,8.28,0,0,1-1.65-1.12,14.78,14.78,0,0,1-2.7-3.11,12.53,12.53,0,0,1-2.38-7.5,4.87,4.87,0,0,1,1.5-3.16,8,8,0,0,1,2.61-1.57,16.43,16.43,0,0,1,4.25-.91,6.07,6.07,0,0,1,1.59,0s-.56.07-1.57.22a18.11,18.11,0,0,0-4.13,1.05,7.79,7.79,0,0,0-2.45,1.54,4.37,4.37,0,0,0-1.32,2.89,12.22,12.22,0,0,0,2.34,7.17,14.63,14.63,0,0,0,2.59,3,8.71,8.71,0,0,0,3.22,1.73,11.88,11.88,0,0,0,6.19.57,5.33,5.33,0,0,0,2.08-1.13,8.67,8.67,0,0,0,1.29-1.29,3,3,0,0,0,.58-1A1,1,0,0,0,306.09,102Z" style="fill:#fff"></path><path d="M297.91,106a1.29,1.29,0,0,1,0,.45c-.05.3-.12.73-.24,1.28a17.24,17.24,0,0,1-1.5,4.52,3.93,3.93,0,0,1-.45.67,3.33,3.33,0,0,1-.65.55,7.16,7.16,0,0,1-1.57.77,9.58,9.58,0,0,1-3.79.5,11.24,11.24,0,0,1-4.11-1,8.34,8.34,0,0,1-3-3.39,29.6,29.6,0,0,1-2.76-8.2,6.06,6.06,0,0,1-.16-2,6.46,6.46,0,0,1,.53-1.81,13.72,13.72,0,0,1,1.77-2.8c.32-.39.61-.76.95-1.1a4.85,4.85,0,0,1,1.06-.76,8.11,8.11,0,0,1,1.94-.72,10.87,10.87,0,0,1,1.27-.24,1.26,1.26,0,0,1,.46,0s-.61.12-1.68.44a6.21,6.21,0,0,0-3.71,2.62,13.29,13.29,0,0,0-1.66,2.75,5.91,5.91,0,0,0-.48,1.68,5.73,5.73,0,0,0,.18,1.85,30.07,30.07,0,0,0,2.75,8,8.07,8.07,0,0,0,2.81,3.2,11,11,0,0,0,3.89,1,9.3,9.3,0,0,0,3.62-.43,4.18,4.18,0,0,0,2.5-1.76,20.18,20.18,0,0,0,1.62-4.39C297.74,106.57,297.87,106,297.91,106Z" style="fill:#fff"></path><path d="M328.8,107.11a1.91,1.91,0,0,1-.33.24,6.7,6.7,0,0,1-1.07.52,12.87,12.87,0,0,1-4.51.8,4.24,4.24,0,0,1-3-1.44,11.11,11.11,0,0,1-2.07-3.36,15.11,15.11,0,0,1-.72-2.09,8.37,8.37,0,0,0-.95-2.07,6.1,6.1,0,0,0-3.88-2.8L311,96.72a5,5,0,0,1-1.34-.49,6.29,6.29,0,0,1-2.16-2,5.89,5.89,0,0,1-1.07-2.85,4.15,4.15,0,0,1,1-3,6.32,6.32,0,0,1,2.72-1.79,13.73,13.73,0,0,1,3.26-.7,17.42,17.42,0,0,1,6.88.61,16.25,16.25,0,0,1,6.26,3.65,22.18,22.18,0,0,1,4.54,6,26,26,0,0,1,1.55,3.58,12.24,12.24,0,0,1,.61,3.94,25.71,25.71,0,0,1-.32,4c-.1.67-.2,1.32-.33,2a18.56,18.56,0,0,1-.57,2c-.39,1.15-.79,2.28-1.12,3.42a15.54,15.54,0,0,0-.39,1.71,2.34,2.34,0,0,0,.13,1.52,9.51,9.51,0,0,1,2,3,6.16,6.16,0,0,1,.29,3.58l0,.13-.16,0-34.92,7.78-.13,0-.07-.09a6.69,6.69,0,0,1-1.29-3,12.1,12.1,0,0,0-.26-1.49,4.88,4.88,0,0,0-.65-1.29,19.49,19.49,0,0,0-4-3.78,14.29,14.29,0,0,1-3.24-3.67c-.85-1.24-1.55-2.42-2.18-3.49-1.24-2.14-2.13-3.84-2.72-5l-.66-1.33a4.62,4.62,0,0,1-.21-.47s.1.15.26.44l.71,1.3c.62,1.15,1.55,2.83,2.81,5,.64,1,1.36,2.22,2.21,3.45a14.23,14.23,0,0,0,3.21,3.56,20.13,20.13,0,0,1,4.12,3.83,5.49,5.49,0,0,1,.7,1.39,11,11,0,0,1,.28,1.53,6.53,6.53,0,0,0,1.22,2.82l-.19-.06,34.9-7.89-.19.17a5.58,5.58,0,0,0-.28-3.24,8.76,8.76,0,0,0-1.9-2.83,2.67,2.67,0,0,1-.24-1.93,15.28,15.28,0,0,1,.4-1.78c.34-1.16.74-2.3,1.12-3.44a18.57,18.57,0,0,0,.56-1.91c.12-.65.22-1.33.32-2a24.77,24.77,0,0,0,.32-3.92,12.25,12.25,0,0,0-.57-3.79,25.34,25.34,0,0,0-1.52-3.5,21.65,21.65,0,0,0-4.43-5.92A15.65,15.65,0,0,0,320.08,87a16.93,16.93,0,0,0-6.68-.61,13.07,13.07,0,0,0-3.15.66,5.92,5.92,0,0,0-2.55,1.64,3.75,3.75,0,0,0-.88,2.7,5.44,5.44,0,0,0,1,2.65,6,6,0,0,0,2,1.84,4.84,4.84,0,0,0,1.23.46l1.34.2a6.43,6.43,0,0,1,4.08,3,8.16,8.16,0,0,1,1,2.16,15.39,15.39,0,0,0,.68,2,11.17,11.17,0,0,0,2,3.31,4,4,0,0,0,2.79,1.41,13.15,13.15,0,0,0,4.47-.7,6.73,6.73,0,0,0,1.08-.47C328.68,107.18,328.79,107.1,328.8,107.11Z" style="fill:#fff"></path><path d="M489.1,153.29c-.83-.56-8.2,4.63-8.2,4.63a53.7,53.7,0,0,1,5.5-5.31c2.36-2,1.53-2.63,1.53-2.63-1.7-1.06-9.13,5.64-9.13,5.64a26.77,26.77,0,0,1,2.72-3.22c1.31-1.23,2.29-3.51,1.58-3.75-1.92-.63-9.82,9-9.82,9s-.76,1-.66-2.75-1.59-3.43-1.59-3.43a77.94,77.94,0,0,1-2.48,7.66c-.34.74-2.43,5-3.07,6.22-3.62,3.82-21,23.11-21,23.11l-6.17-1.12-8.78,17.52,21.68,4.47c5.09-.22,10.32-5.23,13.83-14.13l14.72-27.25c3.39-4.89,7.84-8.22,7.72-9.32-.15-1.37-5.7,2.89-5.7,2.89C483,159.52,490.48,154.22,489.1,153.29Z" style="fill:#ffbe9d"></path><path d="M471.23,158.56c0-.06.65.12,1.4.83a5.15,5.15,0,0,1,1.6,3.59l-.46-.17,0,0a6,6,0,0,1,3.44-1.95,2.78,2.78,0,0,1,1.64,0c0,.09-.62.07-1.55.32a6.5,6.5,0,0,0-3.14,1.94l0,0-.45.49V163a5.33,5.33,0,0,0-1.34-3.35C471.74,158.92,471.19,158.63,471.23,158.56Z" style="fill:#eb996e"></path><path d="M421.11,414.49,423.8,421s13.4,12.73,16.72,11.49c2.18-.82-1.17-4.16-7.13-14.49l-1.6-4.4Z" style="fill:#FF725E"></path><path d="M440.64,430.32a.73.73,0,0,1-.05.22,1.45,1.45,0,0,1-.4.51,2,2,0,0,1-1,.37,2.65,2.65,0,0,1-1.33-.27,54.61,54.61,0,0,1-6.43-4.35,72.51,72.51,0,0,1-5.89-5.06c-.72-.69-1.29-1.26-1.67-1.66l-.44-.47a.92.92,0,0,1-.14-.17l.17.14.47.44,1.71,1.61c1.46,1.35,3.51,3.16,5.92,5A62.44,62.44,0,0,0,438,431a2.1,2.1,0,0,0,2.18,0A1.4,1.4,0,0,0,440.64,430.32Z" style="fill:#263238"></path><path d="M438.34,425.92s-.36,0-.9.18a5.44,5.44,0,0,0-1.89,1.07,4.11,4.11,0,0,0-1.26,1.74c-.19.53-.21.89-.24.88a1.92,1.92,0,0,1,.1-.92,3.84,3.84,0,0,1,1.27-1.86,4.71,4.71,0,0,1,2-1.05A1.71,1.71,0,0,1,438.34,425.92Z" style="fill:#263238"></path><path d="M427.26,424.17s0-.51,0-1.31a5.25,5.25,0,0,0-1-2.9,5,5,0,0,0-2.47-1.82,9.23,9.23,0,0,0-1.28-.25,1.17,1.17,0,0,1,.36,0,3.66,3.66,0,0,1,1,.14,4.91,4.91,0,0,1,2.6,1.84,5.12,5.12,0,0,1,1,3,5.49,5.49,0,0,1-.08,1A1.05,1.05,0,0,1,427.26,424.17Z" style="fill:#263238"></path><path d="M422,415.53a7.1,7.1,0,0,1,.94,2c.4,1.18.77,2.1.73,2.12a7.23,7.23,0,0,1-.92-2.05C422.35,416.47,422,415.56,422,415.53Z" style="fill:#263238"></path><path d="M433.74,419c0,.06-.63.14-1.35.43s-1.23.67-1.27.62a3.38,3.38,0,0,1,2.62-1Z" style="fill:#263238"></path><path d="M434.15,420.1c0,.06-.54.09-1.13.34s-1,.6-1,.55a2.34,2.34,0,0,1,2.18-.89Z" style="fill:#263238"></path><path d="M435.27,421.43a5.49,5.49,0,0,0-1.2.22,5.8,5.8,0,0,0-1,.66c-.06,0,.25-.58.94-.85A1.51,1.51,0,0,1,435.27,421.43Z" style="fill:#263238"></path><path d="M432.9,418.6a.93.93,0,0,1-.38,0,7.24,7.24,0,0,1-1-.12,8.07,8.07,0,0,1-1.48-.4,7.48,7.48,0,0,1-.84-.35,1.14,1.14,0,0,1-.69-.77.67.67,0,0,1,.76-.66,1.82,1.82,0,0,1,.85.4,14.34,14.34,0,0,1,1.2,1c.33.29.58.54.74.71s.25.29.24.3-.41-.35-1.07-.9c-.34-.28-.75-.59-1.22-.91a1.6,1.6,0,0,0-.76-.35c-.26,0-.57.16-.53.43s.32.47.57.6a8.06,8.06,0,0,0,.81.36,10.4,10.4,0,0,0,1.45.44C432.36,418.54,432.9,418.57,432.9,418.6Z" style="fill:#263238"></path><path d="M432.29,418.55s0-.12-.07-.34-.06-.53-.07-.93a5.18,5.18,0,0,1,.14-1.4,3.26,3.26,0,0,1,.33-.78.76.76,0,0,1,.84-.42.85.85,0,0,1,.44.83,2.84,2.84,0,0,1-.12.84,4.06,4.06,0,0,1-.61,1.27,5,5,0,0,1-.61.71c-.16.16-.26.23-.27.22s.33-.36.76-1a4.76,4.76,0,0,0,.55-1.24,3.27,3.27,0,0,0,.1-.78c0-.26-.09-.56-.31-.64s-.46.11-.6.33a2.85,2.85,0,0,0-.31.72,5.35,5.35,0,0,0-.18,1.35C432.29,418.06,432.32,418.55,432.29,418.55Z" style="fill:#263238"></path><g style="opacity:0.4"><path d="M423.8,421l-1.3-3.15s2.81.08,3.84,2a8.9,8.9,0,0,1,1.08,3.42l6.93,5.46s1-3.14,3.84-2.86c0,0,2.85,4.33,3,5.51s-1.27,1.25-1.79,1.11a24.65,24.65,0,0,1-6-3.36C429.75,426.4,425.63,422.81,423.8,421Z"></path></g><path d="M372.49,420.66l-.05-9.2,17.22-.21.22,13.45-1.07.09c-4.75.32-24.17,1.3-27.36.37C357.9,424.13,372.49,420.66,372.49,420.66Z" style="fill:#FF725E"></path><g style="opacity:0.4"><path d="M383.63,424.65a6,6,0,0,1,2.16-3.7,5.79,5.79,0,0,1,4-1.3l.06,4.81Z"></path></g><g style="opacity:0.4"><path d="M365.36,422.61s-5.11,1.54-4.46,2.38,20.32.58,29-.29l0-.38-22.94.49S366.37,422.64,365.36,422.61Z"></path></g><path d="M390.12,424.31l-.3,0-.85.06-3.13.18c-2.64.13-6.29.26-10.33.31s-7.69,0-10.34,0l-3.13-.09-.85,0a1.16,1.16,0,0,1-.3,0H362l3.13,0c2.65,0,6.3,0,10.34,0s7.68-.16,10.33-.25l3.13-.11.85,0Z" style="fill:#263238"></path><path d="M366.92,425.08a6.64,6.64,0,0,0-.6-1.49,7.8,7.8,0,0,0-1.08-1.19,2.35,2.35,0,0,1,1.25,1.08A2.3,2.3,0,0,1,366.92,425.08Z" style="fill:#263238"></path><path d="M372,422.43c-.05,0-.29-.26-.55-.65S371,421,371,421s.3.26.55.65S372,422.4,372,422.43Z" style="fill:#263238"></path><path d="M373.36,421.68s-.32-.14-.62-.4-.51-.51-.47-.55.31.13.61.39S373.39,421.63,373.36,421.68Z" style="fill:#263238"></path><path d="M374.22,420a2.11,2.11,0,0,1-.9.13,1.94,1.94,0,0,1-.9-.09,2.17,2.17,0,0,1,.89-.12A2.08,2.08,0,0,1,374.22,420Z" style="fill:#263238"></path><path d="M374.5,418.89a2.56,2.56,0,0,1-2,.18,5.54,5.54,0,0,1,1-.08A5.12,5.12,0,0,1,374.5,418.89Z" style="fill:#263238"></path><path d="M371.37,420.94a3.27,3.27,0,0,1-1.11,0,6,6,0,0,1-1.18-.24,3.1,3.1,0,0,1-.68-.27.61.61,0,0,1-.28-.34.43.43,0,0,1,.16-.44,2,2,0,0,1,2.52.56,1.92,1.92,0,0,1,.37.73c.05.19.05.3,0,.3a3,3,0,0,0-.51-.94,2.1,2.1,0,0,0-.95-.6,1.69,1.69,0,0,0-1.32.11c-.18.13-.11.33.09.45a4.39,4.39,0,0,0,.63.26,8.14,8.14,0,0,0,1.14.28C370.94,420.91,371.37,420.9,371.37,420.94Z" style="fill:#263238"></path><path d="M371.08,421a1.17,1.17,0,0,1-.14-.77,1.76,1.76,0,0,1,.3-.81,1.1,1.1,0,0,1,.91-.58.44.44,0,0,1,.35.51,1.35,1.35,0,0,1-.18.49,3.65,3.65,0,0,1-.52.68,1.61,1.61,0,0,1-.63.46s.22-.2.52-.56a4.31,4.31,0,0,0,.46-.67c.15-.23.25-.66,0-.7s-.56.25-.73.48a1.82,1.82,0,0,0-.3.72A4.44,4.44,0,0,0,371.08,421Z" style="fill:#263238"></path><path d="M389.71,419.6s-.5,0-1.27.06a5.69,5.69,0,0,0-2.77,1.18,5.59,5.59,0,0,0-1.7,2.47c-.25.74-.27,1.24-.31,1.24a1.22,1.22,0,0,1,0-.35,5.07,5.07,0,0,1,.18-.93,5.35,5.35,0,0,1,1.71-2.59,5.29,5.29,0,0,1,2.88-1.17,5.69,5.69,0,0,1,.95,0A1,1,0,0,1,389.71,419.6Z" style="fill:#263238"></path><path d="M387.83,412.45A28,28,0,0,1,388,416a30,30,0,0,1,0,3.54,62.77,62.77,0,0,1-.18-7.08Z" style="fill:#263238"></path><path d="M381.45,423a9.45,9.45,0,0,1-2.52.29,10.18,10.18,0,0,1-2.52-.17c0-.06,1.13,0,2.52,0S381.44,422.93,381.45,423Z" style="fill:#263238"></path><path d="M384.82,423s-.09.24-.2.49-.17.49-.23.49-.09-.27,0-.57S384.78,422.9,384.82,423Z" style="fill:#263238"></path><path d="M386.07,421.35s-.06.22-.24.4-.35.3-.39.26.06-.22.24-.4S386,421.31,386.07,421.35Z" style="fill:#263238"></path><path d="M387.88,420.6c0,.06-.24.06-.49.15s-.43.23-.48.19.1-.28.41-.38S387.9,420.55,387.88,420.6Z" style="fill:#263238"></path><path d="M389.18,420.24c0,.06-.08.15-.22.2s-.28.06-.3,0,.08-.14.22-.2S389.15,420.19,389.18,420.24Z" style="fill:#263238"></path><polyline points="359.84 256.27 367.18 418.4 394.18 418.04 390.25 285.92 413.77 417.25 440.16 415.18 411.86 256.27" style="fill:#263238"></polyline><path d="M385.78,258.54a5,5,0,0,1,.17,1.09c.07.7.16,1.73.26,3,.21,2.53.45,6,.69,9.88.11,1.92.22,3.75.32,5.44a16.31,16.31,0,0,0,.52,4.34,3.62,3.62,0,0,0,1.81,2.15,4.53,4.53,0,0,0,1,.3s-.1,0-.29,0a2.32,2.32,0,0,1-.82-.16,3.78,3.78,0,0,1-2.08-2.21,15.74,15.74,0,0,1-.65-4.44c-.11-1.69-.23-3.52-.36-5.44-.24-3.86-.42-7.36-.53-9.89-.06-1.26-.09-2.29-.11-3A4.11,4.11,0,0,1,385.78,258.54Z" style="fill:#455a64"></path><path d="M388.53,260.91c0,.07-.22.24-.25.67a.83.83,0,0,0,.21.61.64.64,0,0,0,.7.09.61.61,0,0,0,.43-.55.8.8,0,0,0-.27-.59c-.31-.28-.63-.22-.65-.3s.34-.3.86,0a1.12,1.12,0,0,1,.54.87,1.15,1.15,0,0,1-2,.8,1.11,1.11,0,0,1-.22-1C388.08,260.92,388.53,260.84,388.53,260.91Z" style="fill:#455a64"></path><path d="M413.77,265.15a5.33,5.33,0,0,1-2.23.84,9.44,9.44,0,0,1-10-4.46,5.18,5.18,0,0,1-.85-2.23c.09,0,.36.84,1.17,2a9.81,9.81,0,0,0,9.62,4.3C412.9,265.44,413.74,265.06,413.77,265.15Z" style="fill:#455a64"></path><path d="M369.17,258.54a3.85,3.85,0,0,1-.1,1.93,7.6,7.6,0,0,1-6.7,5.87,3.7,3.7,0,0,1-1.93-.16c0-.08.74,0,1.88-.2a8,8,0,0,0,6.39-5.6C369.06,259.27,369.08,258.53,369.17,258.54Z" style="fill:#455a64"></path><path d="M438.82,186.3l-10.31,20.57-19-2.89-.65,26.16,5.35,27.8-56.61-1.67c-.13-5.71,3.26-60.51,3.26-60.51l-21.58-10.85L348,162.68l23.28,9.85s7.61,1,8.3,1.27a27.06,27.06,0,0,0,17,.1h0a23.68,23.68,0,0,1,7.31,1.4Z" style="fill:#FF725E"></path><circle cx="385.04" cy="203.12" r="10.46" style="fill:#fff"></circle><circle cx="384.86" cy="203.12" r="8.47" transform="translate(-46.81 147.98) rotate(-20.54)" style="fill:#FF725E"></circle><path d="M398.71,174.07s-.22.25-.68.6a13.07,13.07,0,0,1-2.1,1.29,17.16,17.16,0,0,1-8,1.52,22.61,22.61,0,0,1-7.87-2,8.41,8.41,0,0,1-2.09-1.33,1.56,1.56,0,0,1-.51-.76c.05,0,.2.26.65.6a9.39,9.39,0,0,0,2.1,1.15A25,25,0,0,0,388,177a18.25,18.25,0,0,0,7.78-1.34C397.64,174.8,398.65,174,398.71,174.07Z" style="fill:#263238"></path><path d="M436.38,185.45c.14.06-1.79,4.85-4.29,10.71s-4.65,10.56-4.78,10.5,1.79-4.85,4.3-10.71S436.25,185.4,436.38,185.45Z" style="fill:#fff"></path><path d="M360.69,200.36c-.09,0,0-1-.07-2.51a14,14,0,0,0-1.52-5.72,15.67,15.67,0,0,0-3.8-4.55,23.29,23.29,0,0,1-1.93-1.62,8.37,8.37,0,0,1,2.16,1.33,14.08,14.08,0,0,1,4,4.6,12.79,12.79,0,0,1,1.43,6,14.27,14.27,0,0,1-.15,1.85C360.78,200.12,360.73,200.36,360.69,200.36Z" style="fill:#263238"></path><path d="M415.61,198.65c.06.14-1.7.91-3.44,2.45s-2.75,3.17-2.89,3.09a7.87,7.87,0,0,1,2.55-3.48A7.77,7.77,0,0,1,415.61,198.65Z" style="fill:#263238"></path><path d="M348.89,162.83c.14,0-1.7,5.17-4.09,11.43s-4.45,11.3-4.58,11.25,1.7-5.17,4.09-11.43S348.76,162.78,348.89,162.83Z" style="fill:#fff"></path></g><g id="freepik--character-1--inject-2"><path d="M256.8,192.2a5,5,0,0,0,.16-3.7c-.64-1.41-2.21-2.13-3.2-3.3a12.66,12.66,0,0,1-1.68-3.22,5.72,5.72,0,0,0-2.18-2.83,2.58,2.58,0,0,0-2.86.19,5.81,5.81,0,0,0-3.18-5.59c-2.32-1.07-5.06-.44-7.4.59s-4.53,2.44-7,3-5.19.27-7.24,1.71c-1.76,1.25-2.53,3.48-2.85,5.61s-.31,4.34-1,6.39c-.79,2.39-2.49,4.56-2.48,7.07,0,2.92,2.31,5.24,3.62,7.87a5.54,5.54,0,0,0-6.23,1,7.8,7.8,0,0,0-1.85,7.19c.42,1.9,1.39,3.7,1.44,5.65a8.6,8.6,0,0,1-3.05,6.26,14.09,14.09,0,0,1-8.55,3.71c-1.45.1-3.3.21-3.79,1.58a2.29,2.29,0,0,0,1,2.52,6.72,6.72,0,0,0,2.76.87c-2-.14-3.56,2.27-3,4.19a4.57,4.57,0,0,0,4.8,2.84c-1.56.73-1.63,3.14-.47,4.41a6,6,0,0,0,4.75,1.54c6.7-.23,12.55-5.37,15.13-11.57s2.36-13.22,1.06-19.8c-.14-.74-.3-1.47-.44-2.21a15.2,15.2,0,0,0,3.83,1.42l19.83-34.91v0L250,204.84a4.15,4.15,0,0,0,5.34-1.94c1-2.18-.1-4.75.27-7.11A21.14,21.14,0,0,1,256.8,192.2Z" style="fill:#263238"></path><path d="M256,267.79,260,249.87l.07.13,13.37-28.51L259.8,208.56l-11.07,18.37-6.64-.77a54.14,54.14,0,0,0-11.23.07c-2,.5-4.13,1.09-6.34,1.83h0c-1.2-1.48-3.36-1.48-3.36-.18L211,212.12l-19.59,8.66L212,256.22,214.77,269c1.68,4.41,1,10.4,0,15l-4.26,21.43L263.25,307C263.25,301.69,255.14,271.86,256,267.79Z" style="fill:#FF725E"></path><path d="M224,239.16a30.69,30.69,0,0,0-1.17-7.16,29.41,29.41,0,0,0-3.33-6.45,6.23,6.23,0,0,1,1.45,1.61,17.55,17.55,0,0,1,2.37,4.67,17.32,17.32,0,0,1,.88,5.17A6.35,6.35,0,0,1,224,239.16Z" style="fill:#263238"></path><path d="M221.16,227.88s0-.19.14-.45a1.54,1.54,0,0,1,1.12-.59,2.31,2.31,0,0,1,1.75.7,9.32,9.32,0,0,1,1.37,1.74,9.75,9.75,0,0,1,1.74,5.3,26.72,26.72,0,0,0-2.18-5,10.54,10.54,0,0,0-1.26-1.67,2.05,2.05,0,0,0-1.4-.68,1.42,1.42,0,0,0-1,.36C221.26,227.74,221.2,227.89,221.16,227.88Z" style="fill:#263238"></path><path d="M262.16,236.89c.15.05-.67,3-1.38,6.58s-1,6.64-1.2,6.62a7,7,0,0,1,0-2,44.33,44.33,0,0,1,.67-4.74,43.31,43.31,0,0,1,1.17-4.63A7.29,7.29,0,0,1,262.16,236.89Z" style="fill:#263238"></path><path d="M253.36,236.82c1.07,4.85,5.27,8.42,7,13.07a14,14,0,0,1-4,15.08" style="fill:#FF725E"></path><path d="M241.28,263.4s-.14.22-.47.54a9.52,9.52,0,0,1-1.55,1.21,12.22,12.22,0,0,1-12.43.44,9.89,9.89,0,0,1-1.63-1.08c-.36-.3-.53-.49-.51-.52s.85.58,2.31,1.28a12.9,12.9,0,0,0,12.07-.44C240.48,264,241.22,263.33,241.28,263.4Z" style="fill:#263238"></path><path d="M260.22,249.57a8.78,8.78,0,0,1-1.11-1.88c-.62-1.21-1.41-2.9-2.18-4.8s-1.38-3.69-1.75-5a8.82,8.82,0,0,1-.47-2.14,9.72,9.72,0,0,1,.82,2c.46,1.26,1.11,3,1.88,4.9C259,246.49,260.36,249.5,260.22,249.57Z" style="fill:#263238"></path><path d="M253.51,269.88c0,.09-1.45.41-3.74,1.21a40,40,0,0,0-8.45,4.13,40.6,40.6,0,0,0-7.23,6c-1.66,1.76-2.55,3-2.63,2.92a3.81,3.81,0,0,1,.56-.9,24.6,24.6,0,0,1,1.8-2.27,35.44,35.44,0,0,1,7.21-6.22,34.86,34.86,0,0,1,8.63-4.05,25.32,25.32,0,0,1,2.8-.72A3.57,3.57,0,0,1,253.51,269.88Z" style="fill:#263238"></path><path d="M247.36,259.34H232.72V244.7h14.64Zm-13.64-1h12.64V245.7H233.72Z" style="fill:#fff"></path><path d="M212.23,214.09a18.83,18.83,0,0,1-2.71,1.51c-1.71.87-4.09,2-6.74,3.27s-5.08,2.29-6.87,3a20.64,20.64,0,0,1-2.16.72,2.12,2.12,0,0,1-.63.1.23.23,0,0,1-.17,0s0-.07,0-.07c0,.3,4.35-1.72,9.62-4.16l6.8-3.13A17.45,17.45,0,0,1,212.23,214.09Z" style="fill:#fafafa"></path><path d="M272.28,224a17.06,17.06,0,0,1-2-2l-4.78-5-4.87-4.88a18.16,18.16,0,0,1-2-2.08,14.32,14.32,0,0,1,2.22,1.81c1.32,1.18,3.1,2.86,5,4.79s3.53,3.74,4.69,5.08A15.17,15.17,0,0,1,272.28,224Z" style="fill:#fafafa"></path><g style="opacity:0.1"><path d="M252.2,269.45c.46-.79-.22-1.85-1.1-2.12a4.22,4.22,0,0,0-2.67.36c-4.59,1.76-8.86,4.63-13.75,5.11-1.58.15-3.18.05-4.77.15a8.69,8.69,0,0,0-4.52,1.34,4.32,4.32,0,0,0-1.92,4.1,2.89,2.89,0,0,0,3.53,2.29c.62-.22,1.32-.69,1.87-.33.83.56-.08,1.87.18,2.83a1.6,1.6,0,0,0,2.15.82,5.1,5.1,0,0,0,1.92-1.72c4.94-6.11,11.4-10.09,19.08-12.83"></path></g><g style="opacity:0.1"><path d="M221.37,228a12.85,12.85,0,0,1,.54,9c-.51,1.61-1.33,3.27-.87,4.88.13.47.48,1,1,.94a1.2,1.2,0,0,0,.83-.65,9.51,9.51,0,0,0,1.12-6.6,28.69,28.69,0,0,0-2.13-6.49"></path></g><g style="opacity:0.1"><path d="M239,234.89a16.77,16.77,0,0,0,6-2.66,7.43,7.43,0,0,0,3.21-5.36l-4.05-.47Z"></path></g><path d="M210.23,212.7l-5.07-8.88a8.33,8.33,0,0,1-1.06-4.71l3.35-45.46-.31.18a15.85,15.85,0,0,0-.24-3.76h-.27a.65.65,0,0,0,.06-.23c0-.73-1.8-6.61-1.8-6.61s-.33-.91-2-.79c-1,.08-.82,2-.82,2a.86.86,0,0,0,0,.25c0,.29.13.8.26,1.4-.21-.74-.37-1.25-.37-1.25s-.33-.92-2-.79c-1,.08-.81,2-.81,2s0,.1,0,.25a15.25,15.25,0,0,0,.32,1.71c-.25-.87-.44-1.5-.44-1.5s-.34-.91-2-.79c-1,.08-.82,2-.82,2s0,.1,0,.25a16.51,16.51,0,0,0,.32,1.65h-.15c-.08-.29-.14-.47-.14-.47s-.34-.91-2-.79c-.54,0-.73.6-.8,1.11h0v0a5,5,0,0,0,0,.84s0,.11,0,.26a33,33,0,0,0,1,4.28c.35,1.94.75,4.09,1.07,5.87l-5.79,39.62c-.84,5.72,1.85,14.33,4.8,19.31" style="fill:#a56959"></path><path d="M197.52,153.56a11.06,11.06,0,0,1-.65-2.25,10.16,10.16,0,0,1-.39-2.28,10.15,10.15,0,0,1,.65,2.24A9.55,9.55,0,0,1,197.52,153.56Z" style="fill:#7c4435"></path><path d="M200.94,153.45a20.46,20.46,0,0,1-1.12-3.61,20.82,20.82,0,0,1-.79-3.7,21.89,21.89,0,0,1,1.12,3.61A21,21,0,0,1,200.94,153.45Z" style="fill:#7c4435"></path><g style="opacity:0.78"><path d="M204.06,152.47a21.18,21.18,0,0,1-1.12-3.6,21,21,0,0,1-.79-3.7,21.5,21.5,0,0,1,1.12,3.61A21,21,0,0,1,204.06,152.47Z" style="fill:#7c4435"></path></g><path d="M197.29,152.83c-.1,0,0,.54-.28,1.21a.93.93,0,0,1-.86.61,1.37,1.37,0,0,1-1-1c-.43-1.11-.88-2.14-1.13-2.87s-.37-1.23-.45-1.22-.08.52.09,1.32a25,25,0,0,0,1,3,1.82,1.82,0,0,0,1.45,1.22,1.28,1.28,0,0,0,1.23-1,2.24,2.24,0,0,0,.06-1C197.37,152.94,197.32,152.82,197.29,152.83Z" style="fill:#7c4435"></path><path d="M210.2,144.74c2.29,5.5,5.7,10.66,10.51,14.17s11.15,5.18,16.88,3.57c3.64-1,7.4-3.31,10.94-2s4.77,5.4,6.5,8.67a16.53,16.53,0,0,0,7.18,7.31,10.77,10.77,0,0,0,10-.15c2.41-1.44,4-3.91,5.51-6.29q3.3-5.24,6.61-10.47a5.21,5.21,0,0,0,.78-6.14q-1.92-4.66-3.83-9.33c-1.37-3.33-2.86-6.83-5.77-9-3.78-2.77-9-2.5-13.54-1.41s-9.06,2.87-13.74,2.73a17.25,17.25,0,0,1-16-13.47" style="fill:#FF725E"></path><path d="M260.68,139.79a7,7,0,0,1-.93,1.06,36.93,36.93,0,0,1-2.81,2.62,45.84,45.84,0,0,1-4.55,3.43,53.55,53.55,0,0,1-6.08,3.45,54.26,54.26,0,0,1-6.51,2.54,46.56,46.56,0,0,1-5.53,1.37,35.94,35.94,0,0,1-3.81.52,8.19,8.19,0,0,1-1.4.06,6.48,6.48,0,0,1,1.38-.26c.89-.12,2.18-.35,3.76-.68a56,56,0,0,0,5.46-1.47,59.81,59.81,0,0,0,6.43-2.55,59.12,59.12,0,0,0,6-3.38,53.83,53.83,0,0,0,4.58-3.31c1.25-1,2.24-1.87,2.9-2.49A8,8,0,0,1,260.68,139.79Z" style="fill:#263238"></path><path d="M250.65,144.69a10.21,10.21,0,0,1-2.37,1,39.15,39.15,0,0,1-12.15,2,9.57,9.57,0,0,1-2.56-.18,17.74,17.74,0,0,1,2.54-.19,56.09,56.09,0,0,0,12.07-2A16.68,16.68,0,0,1,250.65,144.69Z" style="fill:#263238"></path><g style="opacity:0.1"><path d="M260.68,139.79c1.18-1.68-.09-2.37-.69-2.44a3.55,3.55,0,0,0-1.74.37c-3.12,1.38-5.28,4.34-8.26,6a15.54,15.54,0,0,1-8.17,1.68,51.33,51.33,0,0,1-8.33-1.29,11.07,11.07,0,0,0-4.39-.32,3.91,3.91,0,0,0-3.2,2.69c-.34,1.44.85,3.16,2.32,3a6.9,6.9,0,0,0-2.34.55,2.33,2.33,0,0,0-1.34,1.87c0,1.32,1.39,2.18,2.67,2.51,3.84,1,7.89-.11,11.66-1.32a69.31,69.31,0,0,0,12.49-5.55c4.12-2.27,6.5-4,9.32-7.75"></path></g><path d="M188,166a.5.5,0,0,1-.35-.86L236.8,118a.5.5,0,1,1,.69.72l-49.11,47.18A.49.49,0,0,1,188,166Z" style="fill:#263238"></path><path d="M205,160.14l1.83-4.11a7.62,7.62,0,0,0,.21-5.69l-.51-1.41-10.33,2.89s1.74,3.52,4.46,2.18l-2.46,3.37Z" style="fill:#a56959"></path><path d="M198.94,157.47c.06,0,.06-.51.35-1.32a4.94,4.94,0,0,1,2.27-2.61l1-.54-1.17.13-2.59.31h.06a2.91,2.91,0,0,1-2.59-1.73,1.53,1.53,0,0,1-.07-.24l-.19.3c2.95-.7,5.61-1.37,7.5-2a15.84,15.84,0,0,0,3-1.11,28.46,28.46,0,0,0-3.1.76c-1.9.5-4.56,1.11-7.52,1.8l-.24.06,0,.23a1.69,1.69,0,0,0,.09.34,2.94,2.94,0,0,0,1.28,1.51,4.16,4.16,0,0,0,1.75.53h.06l2.58-.37-.13-.4a4.85,4.85,0,0,0-2.3,2.91A2.67,2.67,0,0,0,198.94,157.47Z" style="fill:#7c4435"></path><path d="M203.44,334.82l-9.08,2.08s-4.65,9.43-6.42,8.1,4.43-18.38,4.43-18.38l8.75-2Z" style="fill:#FF725E"></path><path d="M262.5,301.69l37.07,1.5a15.21,15.21,0,0,1,13.78,16.05h0a15.24,15.24,0,0,1-11.85,14l-101,3.7-2.1-24.75L261.9,311l-46.51-9.35H262.5" style="fill:#263238"></path><path d="M262.5,301.69l3.41,10.16-66.12.16,73.6,9.48-3.62,21.44-93.38-9.73a15.25,15.25,0,0,1-11.86-14h0a15.23,15.23,0,0,1,13.79-16.05l32.18-3,1.14-.15Z" style="fill:#263238"></path><path d="M269.77,342.93a2.81,2.81,0,0,1,0-.4l.19-1.16c.19-1.05.44-2.53.77-4.39.7-3.82,1.69-9.21,2.87-15.69l.19.25-26.09-3.24L213.87,314l-10.25-1.37-2.78-.4-.73-.12a.81.81,0,0,1-.24-.06h.25l.73.06,2.8.31,10.27,1.21,33.88,4.18,26.09,3.33.23,0-.05.23c-1.26,6.47-2.31,11.85-3.05,15.66-.38,1.85-.68,3.32-.89,4.36-.1.48-.18.85-.25,1.15A1.86,1.86,0,0,1,269.77,342.93Z" style="fill:#455a64"></path><path d="M185.7,307.15a6.14,6.14,0,0,1,2.25-.46,14.8,14.8,0,0,1,10.39,3.22,6.21,6.21,0,0,1,1.59,1.65c-.06.06-.68-.55-1.81-1.36A17,17,0,0,0,188,307.05C186.58,307.08,185.72,307.23,185.7,307.15Z" style="fill:#455a64"></path><path d="M285.15,306.85s-.92.13-2.53.69a17.84,17.84,0,0,0-6.15,3.84l-.05.05h-.06l-33.28.42-30.61.22h-9.28l-2.52,0a4.59,4.59,0,0,1-.88-.05,6.67,6.67,0,0,1,.88-.06l2.52-.07,9.28-.17,30.6-.38,33.28-.23-.11,0a17.31,17.31,0,0,1,6.32-3.78A10.17,10.17,0,0,1,285.15,306.85Z" style="fill:#455a64"></path><path d="M271.29,334.92l8.63,2s4.65,9.43,6.42,8.1-4.43-18.38-4.43-18.38l-8.75-2Z" style="fill:#FF725E"></path><path d="M252.66,199.52c4.6-10.65-1.71-17.13-5.82-19.46a17.16,17.16,0,0,0-8.17-1.74,29.8,29.8,0,0,0-8.27.75,14.81,14.81,0,0,0-7.16,4c-3.37,3.61-4.14,8.94-3.82,13.87a38.62,38.62,0,0,0,4.9,16.56,4.11,4.11,0,0,0,1.44,1.67,1.51,1.51,0,0,0,2-.36" style="fill:#263238"></path><path d="M244.75,226l-.16-5.48s6.55-1.09,7.91-9.63c.67-4.25.46-11.22.1-16.91-.32-5.13-2.49-11.41-7.59-10.87l-17.18,4a3,3,0,0,0-2.69,3h0l1.34,36.42a9.14,9.14,0,0,0,8.74,8.79h0A9.13,9.13,0,0,0,244.75,226Z" style="fill:#a56959"></path><path d="M250.38,199.29a1.09,1.09,0,0,1-1,1.1,1,1,0,0,1-1.13-1,1.09,1.09,0,0,1,1.05-1.11A1,1,0,0,1,250.38,199.29Z" style="fill:#263238"></path><path d="M251.09,197.55c-.14.15-1-.47-2.14-.47s-2,.6-2.18.45.08-.32.46-.59a3,3,0,0,1,3.44,0C251,197.23,251.16,197.49,251.09,197.55Z" style="fill:#263238"></path><path d="M238.86,199.29a1.09,1.09,0,0,1-1.06,1.1,1,1,0,0,1-1.13-1,1.1,1.1,0,0,1,1.06-1.11A1.05,1.05,0,0,1,238.86,199.29Z" style="fill:#263238"></path><path d="M239.5,197.77c-.13.15-1-.47-2.14-.46s-2.05.59-2.17.44.07-.32.45-.59a3,3,0,0,1,3.44,0C239.44,197.45,239.57,197.71,239.5,197.77Z" style="fill:#263238"></path><path d="M243.78,206.52a7.38,7.38,0,0,1,1.92-.35c.3,0,.58-.09.63-.29a1.52,1.52,0,0,0-.2-.9l-.89-2.29a39,39,0,0,1-2-6,40,40,0,0,1,2.48,5.83c.3.8.58,1.57.85,2.3a1.72,1.72,0,0,1,.16,1.18.73.73,0,0,1-.5.44,1.64,1.64,0,0,1-.51.07A8,8,0,0,1,243.78,206.52Z" style="fill:#263238"></path><path d="M244.59,220.47a21.76,21.76,0,0,1-11.44-3.05s2.78,5.87,11.33,5.07Z" style="fill:#7c4435"></path><path d="M240,195.71c-.11.32-1.29.17-2.67.33s-2.51.55-2.69.26.11-.44.56-.75a4.66,4.66,0,0,1,4.09-.45C239.83,195.3,240.08,195.56,240,195.71Z" style="fill:#263238"></path><path d="M250.66,194.14c-.21.27-1,0-2,0s-1.8.18-2-.1,0-.41.41-.66a2.76,2.76,0,0,1,1.62-.44,2.71,2.71,0,0,1,1.59.54C250.64,193.73,250.75,194,250.66,194.14Z" style="fill:#263238"></path><path d="M252.6,193.93c-1.49-7.29-3.52-5.88-5.82-9.36-3.32,3.37-11,8.73-15.64,9.49a3.07,3.07,0,0,0-1.37.43A2.92,2.92,0,0,0,229,197a32.33,32.33,0,0,1-.62,7.55,12.39,12.39,0,0,1-3.65,6.51c-2.82-5.93-3.1-12.84-1.84-19.29.51-2.64,1.38-5.4,3.48-7.07a11.88,11.88,0,0,1,5.34-2c4.67-.86,10.06-3.64,14.51-2s7.44,6.3,8,11" style="fill:#263238"></path><path d="M239.83,207.16c.31.14,3.72,1.63,4.37,1.9,0,0-1.61,3.34-3.45,2.64C238.7,210.92,239.83,207.16,239.83,207.16Z" style="fill:#263238"></path><path d="M239.55,209.79a.92.92,0,0,1,.9-.44,2.81,2.81,0,0,1,2.38,1.64,1.91,1.91,0,0,1-2.46.56A1.76,1.76,0,0,1,239.55,209.79Z" style="fill:#7c4435"></path><path d="M237.72,203.76a11,11,0,0,1-3.05,1.32,10.53,10.53,0,0,1-3.21.82,21,21,0,0,1,6.26-2.14Z" style="fill:#455a64"></path><path d="M237.94,204.9a11,11,0,0,1-3,1.32,10.59,10.59,0,0,1-3.21.82,10.69,10.69,0,0,1,3-1.32A10.46,10.46,0,0,1,237.94,204.9Z" style="fill:#fafafa"></path><path d="M278,200l-10-42.1h0c-.47-1.77-1.43-5.32-2.26-8.36a32,32,0,0,0-.94-4.3c-.05-.14-.09-.23-.11-.23a4.27,4.27,0,0,0-.38-.75v0h0c-.28-.43-.7-.85-1.2-.65-1.53.59-1.44,1.56-1.44,1.56l.08.48-.13.07a16.3,16.3,0,0,0-.43-1.63.64.64,0,0,0-.11-.23s-.64-1.8-1.59-1.43C257.9,143,258,144,258,144s.1.65.25,1.55c-.17-.74-.33-1.36-.44-1.68a.64.64,0,0,0-.11-.24s-.64-1.79-1.59-1.43c-1.53.6-1.44,1.57-1.44,1.57s.08.53.21,1.28c-.14-.6-.28-1.09-.37-1.37a.64.64,0,0,0-.11-.23s-.65-1.79-1.59-1.43c-1.53.59-1.44,1.56-1.44,1.56s.95,6.07,1.23,6.74a.52.52,0,0,0,.15.18l-.23.13c0,.74,2.11,5,3.11,6.91l7.29,41.31a7.53,7.53,0,0,1-.34,3.85l-2,6.54,12.1,11.52s3.23-8.63,5-13.81A12.4,12.4,0,0,0,278,200Z" style="fill:#a56959"></path><path d="M262,150a10.49,10.49,0,0,0-.34-2.63,10.12,10.12,0,0,0-.67-2.54,10.31,10.31,0,0,0,.35,2.64A10.77,10.77,0,0,0,262,150Z" style="fill:#7c4435"></path><path d="M258.85,150.69a20.91,20.91,0,0,0-.55-3.74,20.66,20.66,0,0,0-.88-3.67A20.91,20.91,0,0,0,258,147,21,21,0,0,0,258.85,150.69Z" style="fill:#7c4435"></path><g style="opacity:0.78"><path d="M255.61,151.16a20.32,20.32,0,0,0-.54-3.74,20.13,20.13,0,0,0-.89-3.67,22,22,0,0,0,.55,3.73A22,22,0,0,0,255.61,151.16Z" style="fill:#7c4435"></path></g><path d="M257.93,158.1l-3.42-2.92a7.61,7.61,0,0,1-2.64-5l-.15-1.5,10.56-1.84s0,3.92-3.08,3.89l3.67,2Z" style="fill:#a56959"></path><path d="M262.39,153.45c-.06,0-.27-.43-.89-1a4.87,4.87,0,0,0-3.17-1.38l-1.18,0,1.12-.38,2.47-.84-.05,0a2.9,2.9,0,0,0,1.59-2.67,1.37,1.37,0,0,0,0-.25l.31.18c-3,.65-5.65,1.2-7.62,1.48a15.65,15.65,0,0,1-3.18.29,28.92,28.92,0,0,1,3.12-.65c1.94-.37,4.6-1,7.57-1.63l.24-.05.06.23a1.51,1.51,0,0,1,.06.35,2.87,2.87,0,0,1-.5,1.91,4.16,4.16,0,0,1-1.35,1.24h-.05l-2.49.78-.06-.42a4.87,4.87,0,0,1,3.34,1.64A2.63,2.63,0,0,1,262.39,153.45Z" style="fill:#7c4435"></path><path d="M261.88,148.55c.08-.05.25.48.77,1a.93.93,0,0,0,1,.18,1.38,1.38,0,0,0,.49-1.29c-.09-1.19-.12-2.31-.22-3.08s-.19-1.27-.11-1.29.29.43.48,1.23a21.74,21.74,0,0,1,.37,3.13,1.77,1.77,0,0,1-.78,1.71,1.3,1.3,0,0,1-1.53-.32,2.17,2.17,0,0,1-.47-.88C261.85,148.7,261.84,148.57,261.88,148.55Z" style="fill:#7c4435"></path></g><g id="freepik--Device--inject-2"><polygon points="669.18 385.16 458.64 385.16 444.7 385.16 444.7 359.63 669.18 359.63 669.18 385.16" style="fill:#263238"></polygon><rect x="455.74" y="216.85" width="195.91" height="126.3" style="fill:#263238"></rect><rect x="534.3" y="343.15" width="40.46" height="16.48" style="fill:#263238"></rect><polygon points="453.14 464.39 458.32 464.39 477.75 385.16 472.31 385.16 453.14 464.39" style="fill:#263238"></polygon><polygon points="657.66 464.39 652.48 464.39 633.05 385.16 638.49 385.16 657.66 464.39" style="fill:#263238"></polygon><rect x="458.37" y="399.33" width="193.28" height="3.27" style="fill:#263238"></rect><path d="M700.06,466s-1.21.09-3.52.09-5.71-.06-10.08-.28l-15.94-.86c-3.11-.15-6.43-.28-9.95-.34s-7.25-.07-11.15.19c-7.81.44-16.31,1.93-25.56,1.75a57.38,57.38,0,0,1-14.16-1.91A45.36,45.36,0,0,1,596,458.3a32,32,0,0,1-10.54-11.84c-.32-.6-.55-1.25-.83-1.88a18.84,18.84,0,0,1-.73-1.94,24.09,24.09,0,0,1-.9-4.06,19.14,19.14,0,0,1,.67-8.39,14.5,14.5,0,0,1,1.9-3.87,13.51,13.51,0,0,1,3-3.09,12.44,12.44,0,0,1,8.28-2.53,9.62,9.62,0,0,1,2.2.42,13.5,13.5,0,0,1,2.06.92,9.64,9.64,0,0,1,3.12,3.23,11.48,11.48,0,0,1,1.46,4.26,14.25,14.25,0,0,1,.18,2.26c0,.38-.05.76-.07,1.14a7.14,7.14,0,0,1-.14,1.12l-.21,1.12c-.09.37-.21.73-.32,1.09a16,16,0,0,1-.84,2.11c-.18.33-.38.66-.57,1a6.7,6.7,0,0,1-.63.94l-.7.89-.82.79-.41.39a5.4,5.4,0,0,1-.46.33l-.92.65-1,.52a5.45,5.45,0,0,1-1,.45,15.73,15.73,0,0,1-4.31,1.06,22.16,22.16,0,0,1-16-5.62c-4.3-3.79-7-8.85-8.93-13.92a103.35,103.35,0,0,1-4-15.41,314.93,314.93,0,0,1-6.79-54.56c-.22-7.83-.16-14.93.18-21.14.12-3.11.39-6,.55-8.66s.48-5.07.69-7.26.49-4.1.68-5.78.44-3.08.6-4.22.29-2,.38-2.6.15-.88.15-.88,0,.31-.1.89-.18,1.47-.33,2.6-.35,2.56-.54,4.23-.4,3.61-.64,5.79-.41,4.6-.64,7.25-.4,5.54-.51,8.65c-.31,6.21-.35,13.3-.1,21.12A316.13,316.13,0,0,0,565,410.33a103.11,103.11,0,0,0,4,15.32c1.88,5,4.59,10,8.8,13.72a21.65,21.65,0,0,0,15.6,5.48,15.33,15.33,0,0,0,4.17-1,5.75,5.75,0,0,0,1-.44l1-.5.88-.62c.15-.1.3-.2.44-.31l.39-.37c.26-.25.53-.5.78-.76l.67-.85a5.08,5.08,0,0,0,.61-.9c.18-.31.37-.62.54-.94a15.33,15.33,0,0,0,.81-2c.11-.36.22-.7.32-1.06l.2-1.08a6.62,6.62,0,0,0,.13-1.09c0-.36.06-.73.07-1.09a14.35,14.35,0,0,0-.17-2.18,11.06,11.06,0,0,0-1.4-4.08,9.1,9.1,0,0,0-2.94-3,11,11,0,0,0-2-.87,9.13,9.13,0,0,0-2.08-.41,12.05,12.05,0,0,0-7.94,2.43,13.14,13.14,0,0,0-4.76,6.71,18.67,18.67,0,0,0-.65,8.16,22.25,22.25,0,0,0,.88,4,15.44,15.44,0,0,0,.71,1.9c.28.62.5,1.26.82,1.85a31.61,31.61,0,0,0,10.36,11.67,45.4,45.4,0,0,0,13.6,6.28,57.37,57.37,0,0,0,14,1.92c9.19.2,17.7-1.27,25.52-1.68,3.92-.25,7.66-.23,11.18-.16s6.86.21,10,.37l15.94.95c4.37.25,7.77.36,10.07.39,1.15,0,2,0,2.62,0Z" style="fill:#455a64"></path><path d="M635.31,330s0-.58,0-1.7,0-2.77,0-4.93c0-4.33,0-10.69,0-18.85,0-16.32-.06-39.85-.1-68.72l.2.2-161,.06h0l.26-.26c0,33.35,0,65.2,0,94.2l-.25-.24,115.84.12,33.25.06,8.85,0,2.29,0h.79l-.76,0h-2.26l-8.81,0-33.19.07-116,.11h-.24V330c0-29,0-60.85,0-94.2v-.26h.28l161,.05h.2v.21c0,28.92-.08,52.49-.11,68.84,0,8.15,0,14.49,0,18.81,0,2.14,0,3.78,0,4.9S635.31,330,635.31,330Z" style="fill:#455a64"></path><path d="M581,305.32a1.31,1.31,0,0,1,0-.19c0-.14,0-.31,0-.53,0-.49,0-1.17,0-2.05,0-1.81,0-4.41-.06-7.71,0-6.62-.07-16-.12-27.26l.23.23-34.89,0c-.07.06.49-.49.25-.25h0v10.2q0,5,0,9.77c0,6.34,0,12.3,0,17.75l-.22-.22,25.25.11,7.1.06,1.89,0,.66,0s-.2,0-.61,0l-1.85,0-7,.06-25.39.12h-.22v-.23c0-5.45,0-11.41,0-17.75q0-4.76,0-9.77V267.6h0c-.23.23.32-.33.27-.27l34.89,0h.23v.23c-.05,11.3-.09,20.75-.12,27.41,0,3.27,0,5.86-.06,7.66,0,.85,0,1.52,0,2l0,.51A.79.79,0,0,1,581,305.32Z" style="fill:#455a64"></path><path d="M546.31,305.32s0-.27,0-.76,0-1.25,0-2.16c0-1.9,0-4.59-.07-7.94,0-6.76-.07-16.14-.12-26.88l.25.26H536c.52-.52.15-.14.26-.25h0v5.67c0,1.86,0,3.7,0,5.49,0,3.58,0,7,0,10.23,0,6.41,0,12-.07,16.33l-.16-.16,7.53.09,2,0,.72,0a5.66,5.66,0,0,1-.66,0l-2,0-7.63.09h-.16v-.16c0-4.34,0-9.92-.07-16.33,0-3.22,0-6.65,0-10.23,0-1.79,0-3.63,0-5.49V267.6h0c.12-.12-.26.25.26-.27h10.54v.25c-.05,10.81-.09,20.26-.12,27.06,0,3.32-.05,6-.07,7.88q0,1.32,0,2.1A3.25,3.25,0,0,1,546.31,305.32Z" style="fill:#455a64"></path><path d="M580.47,285.77c0,.14-7.58.26-16.93.26s-16.93-.12-16.93-.26,7.58-.26,16.93-.26S580.47,285.62,580.47,285.77Z" style="fill:#455a64"></path><path d="M575.38,304.48a2.28,2.28,0,0,1,0,.38c0,.28.05.66.08,1.13,0,1,.14,2.49.24,4.35.19,3.8.45,9.26.79,16,.15,3.37.33,7.07.51,11,.08,2,.24,4,.23,6.16a11.58,11.58,0,0,1-1.54,6.39,6.24,6.24,0,0,1-2.68,2.21,9.86,9.86,0,0,1-3.47.71,15.57,15.57,0,0,1-3.59-.21,5.79,5.79,0,0,1-3.32-1.66,3.53,3.53,0,0,1-.8-1.78,3.67,3.67,0,0,1,.31-1.94,4.32,4.32,0,0,1,2.94-2.45,7.39,7.39,0,0,1,7.09,2.56,12.22,12.22,0,0,1,2.85,7.12,15.57,15.57,0,0,1-1.27,7.36,17.29,17.29,0,0,1-22.48,9.52,17.33,17.33,0,0,1-8.46-7,26,26,0,0,1-3.4-8.47,45.6,45.6,0,0,1-.92-6.84c-.11-1.89-.14-3.36-.15-4.35v-1.13a1.65,1.65,0,0,1,0-.39,1.88,1.88,0,0,1,0,.38c0,.28,0,.66.06,1.13,0,1,.1,2.46.25,4.35a45.78,45.78,0,0,0,1,6.78,26.07,26.07,0,0,0,3.43,8.34,17,17,0,0,0,8.3,6.81,16.84,16.84,0,0,0,21.86-9.32,15.21,15.21,0,0,0,1.23-7.11,11.85,11.85,0,0,0-2.72-6.82,6.92,6.92,0,0,0-6.58-2.41,3.83,3.83,0,0,0-2.6,2.16,3.11,3.11,0,0,0-.27,1.66,2.9,2.9,0,0,0,.68,1.51,5.35,5.35,0,0,0,3,1.51,16.15,16.15,0,0,0,3.47.21,9.28,9.28,0,0,0,3.29-.67,5.76,5.76,0,0,0,2.49-2,11.34,11.34,0,0,0,1.48-6.12c0-2.1-.14-4.16-.21-6.14-.16-4-.31-7.67-.45-11.05-.26-6.73-.48-12.19-.62-16-.07-1.87-.11-3.33-.15-4.35,0-.48,0-.85,0-1.13A2.29,2.29,0,0,1,575.38,304.48Z" style="fill:#455a64"></path></g></svg>